<svg transform="scale(1)" version="1.1" id="Layer_1" xmlns="http://www.w3.org/2000/svg" xmlns:xlink="http://www.w3.org/1999/xlink" x="0px" y="0px" viewBox="0 0 500 500" xml:space="preserve" class="show_show__wrapper__graphic__5Waiy "><title>React</title><style type="text/css">
	.st0{fill:#FFFFFF;}
	.st1{fill:#D1D3D4;}
	.st2{fill:#68E1FD;}
	.st3{fill:#231F20;}
</style><g id="Bubble"><path class="st0" d="M432.6,135.2H67.4c-12.7,0-22.9,10.3-22.9,22.9c0,0,0,0,0,0v190.7c0,12.7,10.3,22.9,22.9,22.9h42.9l33.2,36.7
		v-36.7h289.1c12.7,0,22.9-10.3,22.9-22.9V158.2C455.5,145.5,445.3,135.2,432.6,135.2z"></path><path class="st1" d="M432.6,135.2c12.7,0,22.9,10.3,22.9,22.9l0,0v190.7c0,12.7-10.3,22.9-22.9,22.9H143.5v36.7l-33.2-36.7H67.4
		c-12.7,0-22.9-10.3-22.9-22.9V158.2c0-12.7,10.3-22.9,22.9-22.9h0L432.6,135.2 M432.6,133.8H67.4c-13.4,0-24.3,10.9-24.3,24.3
		v190.7c0,13.4,10.9,24.3,24.3,24.3h42.3l32.8,36.2c0.3,0.3,0.6,0.4,1,0.5c0.2,0,0.3,0,0.5-0.1c0.5-0.2,0.9-0.7,0.9-1.3v-35.3h287.7
		c13.4,0,24.3-10.9,24.3-24.3V158.2C456.9,144.7,446,133.9,432.6,133.8z"></path></g><g id="Receipt"><path class="st1" d="M433.1,254.7h-74.7c-0.4,0-0.7-0.3-0.7-0.7v-90.4c0-0.4,0.3-0.7,0.7-0.7l0,0h74.7c0.4,0,0.7,0.3,0.7,0.7
		c0,0,0,0,0,0V254C433.8,254.4,433.5,254.7,433.1,254.7z M359.1,253.3h73.3v-89h-73.3L359.1,253.3z"></path><path class="st2" d="M402.8,174.3h-4.5v-4.5c0-0.7-0.5-1.2-1.2-1.2c0,0,0,0,0,0h-2.9c-0.7,0-1.2,0.5-1.2,1.2c0,0,0,0,0,0v4.5h-4.5
		c-0.7,0-1.2,0.5-1.2,1.2c0,0,0,0,0,0v2.9c0,0.7,0.5,1.2,1.2,1.2c0,0,0,0,0,0h4.5v4.5c0,0.7,0.5,1.2,1.2,1.2c0,0,0,0,0,0h2.9
		c0.7,0,1.2-0.5,1.2-1.2c0,0,0,0,0,0v-4.5h4.5c0.7,0,1.2-0.5,1.2-1.2c0,0,0,0,0,0v-2.9C404,174.8,403.5,174.3,402.8,174.3
		C402.8,174.3,402.8,174.3,402.8,174.3z"></path><path class="st1" d="M402.3,194.2h-35.7c-0.4,0-0.7-0.3-0.7-0.7s0.3-0.7,0.7-0.7c0,0,0,0,0,0h35.7c0.4,0,0.7,0.3,0.7,0.7
		C403,193.9,402.7,194.2,402.3,194.2L402.3,194.2z"></path><path class="st1" d="M424.8,194.2h-12.1c-0.4,0-0.7-0.3-0.7-0.7s0.3-0.7,0.7-0.7c0,0,0,0,0,0h12.1c0.4,0,0.7,0.3,0.7,0.7
		S425.2,194.2,424.8,194.2C424.8,194.2,424.8,194.2,424.8,194.2z"></path><path class="st1" d="M394.2,204h-27.6c-0.4,0-0.7-0.3-0.7-0.7c0-0.4,0.3-0.7,0.7-0.7h27.6c0.4,0,0.7,0.3,0.7,0.7
		C394.9,203.7,394.6,204,394.2,204z"></path><path class="st1" d="M423.4,204h-10.8c-0.4,0-0.7-0.3-0.7-0.7s0.3-0.7,0.7-0.7c0,0,0,0,0,0h10.8c0.4,0,0.7,0.3,0.7,0.7
		C424.1,203.7,423.8,204,423.4,204L423.4,204z"></path><path class="st1" d="M398.3,213.8h-31.6c-0.4,0-0.7-0.3-0.7-0.7s0.3-0.7,0.7-0.7c0,0,0,0,0,0h31.6c0.4,0,0.7,0.3,0.7,0.7
		C399,213.5,398.6,213.8,398.3,213.8z"></path><path class="st1" d="M424.8,213.8h-12.1c-0.4,0-0.7-0.3-0.7-0.7s0.3-0.7,0.7-0.7c0,0,0,0,0,0h12.1c0.4,0,0.7,0.3,0.7,0.7
		S425.2,213.8,424.8,213.8C424.8,213.8,424.8,213.8,424.8,213.8z"></path><path class="st1" d="M394.2,223.6h-27.6c-0.4,0-0.7-0.3-0.7-0.7c0-0.4,0.3-0.7,0.7-0.7h27.6c0.4,0,0.7,0.3,0.7,0.7
		C394.9,223.3,394.6,223.6,394.2,223.6z"></path><path class="st1" d="M422.8,223.6h-10.1c-0.4,0-0.7-0.3-0.7-0.7s0.3-0.7,0.7-0.7c0,0,0,0,0,0h10.1c0.4,0,0.7,0.3,0.7,0.7
		C423.5,223.3,423.1,223.6,422.8,223.6z"></path><path class="st1" d="M402.3,233.4h-35.7c-0.4,0-0.7-0.3-0.7-0.7s0.3-0.7,0.7-0.7c0,0,0,0,0,0h35.7c0.4,0,0.7,0.3,0.7,0.7
		C403,233.1,402.7,233.4,402.3,233.4L402.3,233.4z"></path><path class="st1" d="M424.8,233.4h-12.1c-0.4,0-0.7-0.3-0.7-0.7c0-0.4,0.3-0.7,0.7-0.7h12.1c0.4,0,0.7,0.3,0.7,0.7
		C425.5,233.1,425.2,233.4,424.8,233.4z"></path><path class="st1" d="M390.3,243.2h-23.6c-0.4,0-0.7-0.3-0.7-0.7s0.3-0.7,0.7-0.7c0,0,0,0,0,0h23.6c0.4,0,0.7,0.3,0.7,0.7
		C391,242.9,390.7,243.2,390.3,243.2z"></path><path class="st1" d="M424.8,243.2h-12.1c-0.4,0-0.7-0.3-0.7-0.7s0.3-0.7,0.7-0.7c0,0,0,0,0,0h12.1c0.4,0,0.7,0.3,0.7,0.7
		S425.2,243.2,424.8,243.2C424.8,243.2,424.8,243.2,424.8,243.2z"></path></g><g id="Character"><path class="st0" d="M159.9,264.1c0-1.2-4.9-6-5.7-7c-1.8-2.3-5-3.9-5.7-6.9c-0.6-2.5,1.4-7.4,1.1-10c-0.2-1.9-0.7-3.8-1.3-5.6
		c-0.6-1.8-1.6-3.6-3.4-4.4c-0.7-0.4-1.6-0.3-2.3,0.2c-0.3,0.5-0.5,1.1-0.4,1.7c0.2,2.6,0.1,5.3-0.3,7.9
		c-3.2,16.1-21.4-0.6-28.1-5.4c-5-3.6-10.3-7.6-16.4-8.3c-1-0.2-1.9,0-2.8,0.4c-1.1,0.9-1.5,2.4-1,3.8c0.6,1.3,1.4,2.4,2.4,3.4
		c-0.9-0.9-2-1.6-3.2-2.1c-1.5-0.7-3.2-0.1-3.9,1.4c-0.5,1-0.3,2.2,0.4,3.1c0.8,1.1,1.7,2,2.9,2.7c-1.3-1.7-3.5-2.6-5.6-2.3
		c-1.7,2.5,0.5,5.8,2.7,7.8c3.9,3.8,8.1,7.2,13.1,9.2c4.8,1.9,9.4,3.6,13.6,6.8c9.9,7.5,18.4,16.9,26.1,26.6
		c2.6-4.8,5.7-9.3,9.1-13.4C153.4,271,159.9,267.3,159.9,264.1z"></path><path class="st3" d="M142.2,287.7c-0.2,0-0.4-0.1-0.5-0.2c-9.3-11.6-17.6-20-26-26.5c-3.8-2.9-7.9-4.5-12.3-6.2l-1.2-0.5
		c-5.4-2.2-10-6.1-13.3-9.4c-1.2-1.2-5-5.2-2.8-8.6c0.1-0.1,0.3-0.3,0.4-0.3c0.7-0.1,1.3-0.1,2,0c-0.6-1.3-0.5-2.8,0.3-3.9
		c1.1-1.2,2.8-1.6,4.3-1l0.2,0.1c-0.1-0.2-0.1-0.3-0.2-0.5c-0.6-1.6-0.1-3.4,1.2-4.5c1-0.5,2.1-0.7,3.2-0.5c6,0.7,11.1,4.4,16,7.9
		l0.7,0.5c0.8,0.6,1.8,1.4,2.9,2.2c5.6,4.3,14.9,11.6,20.2,9.6c1.9-0.7,3.3-2.7,3.9-6c0.4-2.4,0.5-4.9,0.3-7.4v-0.4
		c-0.1-0.8,0.1-1.5,0.5-2.1c0.8-0.8,2-0.9,3-0.4c1.6,0.7,2.8,2.3,3.7,4.8c0.7,1.9,1.1,3.8,1.4,5.8c0,1.6-0.2,3.3-0.6,4.8
		c-0.4,1.9-0.8,3.9-0.6,5.1c0.4,1.8,1.8,3,3.3,4.3c0.8,0.7,1.6,1.5,2.3,2.3c0.2,0.2,0.7,0.7,1.2,1.4c3,3.2,4.6,5,4.6,6l0,0
		c0,2.4-2.8,4.7-5.5,7c-1.1,0.9-2.2,1.9-3.2,2.9c-3.4,4.1-6.5,8.6-9.1,13.3C142.6,287.5,142.4,287.7,142.2,287.7L142.2,287.7z
		 M87,237.2c-1.3,2.6,1.7,5.8,2.7,6.8c3.3,3.1,7.7,7,12.9,9.1l1.2,0.5c4.5,1.8,8.7,3.4,12.6,6.4c8.4,6.4,16.5,14.7,25.6,26
		c2.5-4.5,5.5-8.7,8.7-12.7c1-1.1,2.2-2.2,3.4-3.1c2.3-1.9,5.1-4.2,5.1-6c-0.1-0.8-3.1-4-4.2-5.2c-0.6-0.6-1.1-1.2-1.3-1.4
		c-0.7-0.8-1.4-1.5-2.2-2.2c-1.6-1.4-3.2-2.9-3.7-5c-0.3-1.5,0.1-3.6,0.6-5.6c0.4-1.4,0.6-2.9,0.6-4.4c-0.2-1.9-0.7-3.7-1.3-5.5
		c-0.8-2.1-1.8-3.5-3-4c-0.5-0.2-1.2-0.3-1.5,0.1c-0.2,0.4-0.3,0.8-0.2,1.3v0.4c0.2,2.6,0.1,5.1-0.3,7.7c-0.7,3.7-2.3,6-4.7,6.9
		c-6,2.2-15.3-5-21.5-9.8c-1.1-0.9-2.1-1.6-2.9-2.2l-0.7-0.5c-4.8-3.5-9.7-7-15.4-7.7c-0.8-0.2-1.6-0.1-2.4,0.3
		c-0.9,0.7-1.1,1.9-0.7,3c0.5,1.2,1.3,2.3,2.3,3.1c0.3,0.2,0.3,0.6,0,0.9c-0.2,0.3-0.6,0.3-0.9,0c-0.9-0.9-1.9-1.5-3-2
		c-1.1-0.6-2.5-0.2-3.1,0.9c-0.5,0.9-0.3,1.9,0.3,2.6c0.2,0.3,0.4,0.5,0.6,0.8c0.9,0.4,1.7,1.1,2.3,1.9c0.2,0.3,0.2,0.7-0.1,0.9
		c-0.2,0.2-0.5,0.2-0.8,0c-0.8-0.5-1.5-1.1-2.2-1.7C88.9,237.3,87.9,237.1,87,237.2z"></path><path class="st0" d="M323.3,125.6c-0.8-0.5-1.3-0.8-1.3-0.8c-1.4-7.7-8.5-11.7-15.7-11.9c-8.7-0.2-17,1.1-24.8-3.6
		c-3.2-1.9-6.6-4-10.2-3.7c-4.2,0.3-7.7,3.7-9.3,7.6c-4.5,10.5,1.2,24.8,9.1,32.2c3.3,2.9,6.9,5.5,10.7,7.8l7.9,5.1
		c8.1,5.2,19.4,10.1,29.2,6.4c7.5-2.8,11-11.6,11.8-18.9c0.5-4.1,0.2-8.3-1-12.2c-0.5-1.8-1.3-3.5-2.3-5.1
		C326.1,127.3,324.7,126.4,323.3,125.6z"></path><path class="st3" d="M311.6,166.5c-8.1,0-16.3-4-22.3-7.8l-7.9-5.1c-3.8-2.3-7.5-4.9-10.8-7.9c-8-7.5-13.9-22.2-9.3-33
		c1.9-4.6,5.8-7.7,9.9-8c3.8-0.3,7.4,1.8,10.5,3.7l0.2,0.1c6,3.6,12.4,3.6,19.2,3.5c1.7,0,3.5,0,5.3,0c7,0.2,14.8,4,16.4,12.2
		l0.9,0.6l-0.3,0.7l0.4-0.6c1.5,0.8,2.9,1.8,4.2,3c1.1,1.6,1.9,3.4,2.4,5.3c1.2,4,1.6,8.3,1.1,12.5c-0.9,7.6-4.6,16.6-12.3,19.5
		C316.7,166.1,314.2,166.5,311.6,166.5z M271.8,106.2h-0.6c-3.6,0.2-7,3-8.7,7.1c-4.3,10.2,1.3,24.3,8.9,31.4
		c3.3,2.9,6.9,5.5,10.6,7.7l7.9,5.1c7.7,4.9,18.8,10,28.6,6.4c7.1-2.6,10.5-11.2,11.4-18.4c0.5-4,0.2-8.1-1-11.9
		c-0.5-1.7-1.2-3.4-2.2-4.9c-1.2-1-2.5-1.8-3.8-2.6l0,0l0.4-0.6l-0.5,0.5c-1.5-0.9-1.5-0.9-1.5-1.2c-1.3-7.6-8.5-11.2-15.1-11.3
		c-1.8,0-3.6,0-5.3,0c-7,0.1-13.5,0.1-19.9-3.7l-0.2-0.1C278,108,275,106.2,271.8,106.2z"></path><path class="st2" d="M350.5,260.5l27.5-12.3c-1-1.9-17-39-31.6-48.3c-12.6-10.5-37.9-11.5-66.5-12.6c0,0-13.1,1.2-27.2,2.6
		c-15.4,1.6-30,16.4-30,16.4l4.8,58.4c0,0-2.6,47.3-7.2,107h133.2C353.4,371.9,349.8,269,350.5,260.5z"></path><polygon class="st0" points="273.4,205.3 282.4,307.8 310.4,202.2 	"></polygon><circle class="st3" cx="311.3" cy="246.2" r="6.1"></circle><path class="st3" d="M311.3,252.9c-3.7,0-6.7-3-6.7-6.7c0-3.7,3-6.7,6.7-6.7c3.7,0,6.7,3,6.7,6.7l0,0
		C318,249.9,315,252.9,311.3,252.9z M311.3,240.6c-3,0-5.5,2.5-5.5,5.5c0,3,2.5,5.5,5.5,5.5c3,0,5.5-2.5,5.5-5.5
		S314.3,240.6,311.3,240.6L311.3,240.6z"></path><circle class="st3" cx="314" cy="244.4" r="4.9"></circle><path class="st3" d="M314,249.9c-3,0-5.5-2.5-5.5-5.5s2.5-5.5,5.5-5.5s5.5,2.5,5.5,5.5c0,0,0,0,0,0
		C319.5,247.4,317,249.9,314,249.9z M314,240.1c-2.4,0-4.3,1.9-4.3,4.3c0,2.4,1.9,4.3,4.3,4.3c2.4,0,4.3-1.9,4.3-4.3
		S316.4,240.1,314,240.1L314,240.1z"></path><path class="st3" d="M264.6,229L264.6,229c-0.4,0-0.6-0.3-0.6-0.7c0.1-1.5,4-36.3,20.1-39.6c0.3-0.1,0.7,0.2,0.7,0.5c0,0,0,0,0,0
		c0.1,0.3-0.1,0.7-0.5,0.7c0,0,0,0,0,0c-15.3,3.1-19.1,38.2-19.2,38.5C265.2,228.8,265,229,264.6,229z"></path><path class="st3" d="M312.4,243.6L312.4,243.6c-0.5,0-0.7-0.4-0.7-0.8c0,0,0,0,0,0c4.1-36.5-1.1-50.8-1.1-51
		c-0.2-0.3,0-0.8,0.3-0.9c0.3-0.2,0.8,0,0.9,0.3c0,0,0,0.1,0.1,0.1c0.2,0.6,5.4,14.7,1.2,51.6C313.1,243.3,312.8,243.6,312.4,243.6z
		"></path><path class="st3" d="M275,268.9c-0.4,0-0.7-0.3-0.7-0.7c0-0.4,0.3-0.7,0.7-0.7c2.2,0,3.9-1.7,3.9-3.9v-21.5c0-7.2-5.9-13-13-13
		h-2.3c-7.2,0-13,5.8-13.1,13v21.5c0,2.1,1.7,3.9,3.9,3.9c0.4,0,0.7,0.3,0.7,0.7c0,0.4-0.3,0.7-0.7,0.7c0,0,0,0,0,0
		c-2.9,0-5.3-2.4-5.3-5.3v-21.5c0-8,6.5-14.4,14.5-14.4h2.3c8,0,14.4,6.5,14.5,14.4v21.5C280.3,266.5,277.9,268.9,275,268.9z"></path><path class="st3" d="M255.8,264.8L255.8,264.8c0.7,0,1.2,0.5,1.2,1.2v4.5c0,0.6-0.5,1.2-1.2,1.2h0c-0.6,0-1.2-0.5-1.2-1.2V266
		C254.6,265.4,255.2,264.8,255.8,264.8z"></path><path class="st3" d="M255.8,272.3c-1,0-1.8-0.8-1.8-1.8V266c0-1,0.8-1.8,1.8-1.8c1,0,1.8,0.8,1.8,1.8v4.5
		C257.6,271.5,256.8,272.3,255.8,272.3C255.8,272.3,255.8,272.3,255.8,272.3z M255.8,265.5c-0.3,0-0.6,0.2-0.6,0.5v4.5
		c0,0.3,0.3,0.6,0.6,0.6c0.3,0,0.6-0.3,0.6-0.6V266C256.4,265.7,256.1,265.5,255.8,265.5z"></path><path class="st3" d="M274.5,264.8L274.5,264.8c0.7,0,1.2,0.5,1.2,1.2v4.5c0,0.6-0.5,1.2-1.2,1.2h0c-0.6,0-1.2-0.5-1.2-1.2V266
		C273.3,265.4,273.8,264.8,274.5,264.8z"></path><path class="st3" d="M274.5,272.3c-1,0-1.8-0.8-1.8-1.8V266c0-1,0.8-1.8,1.8-1.8c1,0,1.8,0.8,1.8,1.8v4.5
		C276.3,271.5,275.5,272.3,274.5,272.3L274.5,272.3z M274.5,265.5c-0.3,0-0.6,0.2-0.6,0.5v4.5c0,0.3,0.3,0.6,0.6,0.6
		c0.3,0,0.6-0.3,0.6-0.6V266C275,265.7,274.8,265.5,274.5,265.5z"></path><path class="st0" d="M314,249.9h-0.1c-2.6-0.4-4.3-1.4-5-3c-1.2-2.6,0.6-5.8,0.7-5.9c0.2-0.3,0.6-0.4,0.9-0.2c0,0,0,0,0,0
		c0.3,0.2,0.5,0.6,0.3,1c0,0,0,0,0,0c0,0-1.5,2.6-0.6,4.6c0.5,1.1,1.9,1.9,4,2.2c0.4,0.1,0.6,0.4,0.6,0.8
		C314.6,249.7,314.3,250,314,249.9L314,249.9z"></path><path class="st0" d="M275.3,182.2l-1.9,23.1c0,0,2.1,12.9,16.5,10.8c8.6-1.3,16.1-6.5,20.5-14l3.5-39.7c0,0-9.9-6.5-4.7-28.8
		c-12,3.9-24.7,4.5-37,1.7c0,0-8.6,23.9-8,35S275.3,182.2,275.3,182.2z"></path><path class="st3" d="M286.8,217.1c-12.1,0-14.1-11.5-14.1-11.6c0-0.1,0-0.1,0-0.2l1.8-22.5c-2.4-0.4-10.4-2.6-11-12.5
		c-0.7-11.1,7.7-34.3,8-35.3c0.1-0.3,0.5-0.5,0.8-0.4c12.1,2.7,24.7,2.2,36.6-1.6c0.4-0.1,0.8,0.1,0.9,0.4c0,0.1,0.1,0.3,0,0.4
		c-5,21.5,4.4,28.1,4.4,28.1c0.2,0.1,0.3,0.4,0.3,0.6l-3.5,39.7c0,0.1,0,0.2-0.1,0.3c-4.5,7.7-12.2,13-21,14.3
		C289,217,287.9,217.1,286.8,217.1z M274.1,205.3c0.2,1.1,2.6,12,15.7,10.1s19.2-12.3,19.9-13.4l3.5-39.1c-1.8-1.4-9.1-8.6-5-28.1
		c-11.6,3.4-23.8,3.9-35.6,1.4c-1.3,3.7-8.3,24.3-7.7,34.1c0.1,5.9,4.6,10.7,10.4,11.3c0.4,0,0.7,0.4,0.6,0.8c0,0,0,0,0,0
		L274.1,205.3z"></path><path class="st3" d="M274.1,196.5c5.2-1.5,10-3.9,14.2-7.2c6.7-5.4,6.5-8.9,6.5-8.9s-10.5,4.5-19.5,1.8L274.1,196.5z"></path><path class="st3" d="M274.1,197.2c-0.2,0-0.3-0.1-0.5-0.2c-0.2-0.1-0.3-0.4-0.2-0.6l1.2-14.3c0-0.4,0.4-0.7,0.8-0.6
		c0,0,0.1,0,0.1,0c8.7,2.6,19-1.8,19.1-1.8c0.2-0.1,0.4-0.1,0.6,0c0.2,0.1,0.3,0.3,0.3,0.6c0,0.1,0.2,3.9-6.8,9.5
		c-4.3,3.4-9.2,5.9-14.4,7.3C274.2,197.2,274.2,197.2,274.1,197.2z M275.9,183.1l-1,12.4c4.7-1.5,9.1-3.8,13-6.8
		c4.2-3.3,5.6-5.9,6-7.2C291,182.6,283.2,184.9,275.9,183.1L275.9,183.1z"></path><path class="st2" d="M222.6,206.4L190,274.8L154.2,254l-24.1,25.6c0,0,44.1,57.8,67.7,45.6s43.1-53.5,43.1-53.5L222.6,206.4z"></path><path class="st3" d="M222.1,346.4L222.1,346.4c-0.4,0-0.7-0.3-0.7-0.7c1.7-40,10.3-118.1,10.4-118.9c0-0.4,0.4-0.7,0.7-0.7
		s0.7,0.4,0.7,0.7c0,0,0,0,0,0.1c-0.1,0.8-8.8,78.9-10.4,118.8C222.9,346.2,222.5,346.5,222.1,346.4z"></path><polygon class="st0" points="292.1,292.1 318.2,380 245.1,379.8 219.7,293.8 	"></polygon><path class="st3" d="M318.2,380.6L318.2,380.6l-73.1-0.2c-0.3,0-0.5-0.2-0.6-0.5L219.1,294c-0.1-0.2,0-0.4,0.1-0.6
		c0.1-0.2,0.3-0.3,0.5-0.3l72.4-1.8l0,0c0.3,0,0.5,0.2,0.6,0.5l26.1,87.9c0.1,0.2,0,0.4-0.1,0.6
		C318.5,380.5,318.4,380.6,318.2,380.6z M245.6,379.1l71.8,0.2l-25.7-86.6l-71.1,1.7L245.6,379.1z"></path><path class="st0" d="M350.5,339.1c-9.6,1.2-20.3-0.5-29.5,2.5c-9.5,3.2-20,5.8-29.8,2.8c-4.6-1.5-12.5-19.9-5-21
		c5-0.8,14.8-1,14.8-1l-2.9-11.1c0,0,6.4,6.3,13.5,6.5S343,317,343,317"></path><path class="st3" d="M300.7,346.4c-3.2,0-6.5-0.4-9.6-1.4c-3.9-1.2-8.9-11.8-8.5-17.6c0.2-3.4,2.1-4.4,3.6-4.6
		c4.2-0.6,11.6-0.9,14.1-1l-2.7-10.3c-0.1-0.3,0.1-0.7,0.5-0.8c0.2-0.1,0.4,0,0.6,0.2c0.1,0.1,6.2,6.1,13.1,6.3
		c7,0.2,31.1-0.8,31.3-0.8c0.3,0,0.6,0.2,0.7,0.5c0,0,0,0,0,0.1c0,0.3-0.3,0.6-0.6,0.7c0,0,0,0,0,0c-0.2,0-24.3,1-31.4,0.8
		c-5.2-0.1-10-3.4-12.3-5.3l2.4,9.1c0.1,0.2,0,0.4-0.1,0.5c-0.1,0.2-0.3,0.3-0.5,0.3c-0.1,0-9.9,0.3-14.7,1
		c-1.6,0.2-2.4,1.4-2.5,3.5c-0.4,5.6,4.6,15.4,7.6,16.3c9.6,3,19.8,0.5,29.4-2.8c5.8-1.9,12.2-2,18.4-2c3.7,0,7.5-0.1,11.2-0.5
		c0.3,0,0.7,0.2,0.7,0.6c0,0.3-0.2,0.7-0.5,0.7c0,0,0,0,0,0c-3.8,0.4-7.5,0.6-11.3,0.5c-6.1,0.1-12.4,0.1-18,2
		C314.6,344.5,307.6,346.4,300.7,346.4z"></path><polygon class="st3" points="241,290.5 245.8,301.9 276.8,300.7 272.5,289.5 	"></polygon><path class="st3" d="M245.8,302.5c-0.2,0-0.5-0.2-0.6-0.4l-4.8-11.4c-0.1-0.3,0-0.7,0.3-0.8c0.1,0,0.2,0,0.2,0l31.5-1
		c0.3,0,0.5,0.1,0.6,0.4l4.3,11.2c0.1,0.3,0,0.7-0.4,0.8c-0.1,0-0.1,0-0.2,0L245.8,302.5L245.8,302.5z M241.9,291.1l4.3,10.2
		l29.7-1.1l-3.8-10L241.9,291.1z"></path><path class="st3" d="M257.8,284.6c-1.2-0.5-2.5-0.5-3.7-0.1c-1.7,0.7-2.9,2.2-3.2,4c-0.1,1.1,0.1,2.1,0.5,3.1
		c0.3,1,0.9,1.9,1.7,2.6c2.6,2.3,8.9,2.1,9.3-3c0-1.3-0.3-2.6-0.9-3.8C260.7,286.1,259.4,285.1,257.8,284.6z"></path><path class="st3" d="M257.2,296.4c-1.7,0-3.3-0.5-4.5-1.6c-0.8-0.8-1.4-1.8-1.8-2.9c-0.5-1.1-0.6-2.2-0.5-3.4
		c0.3-2.1,1.7-3.8,3.6-4.5c1.3-0.5,2.8-0.4,4.1,0.1c1.7,0.5,3.2,1.6,4,3.2c0.7,1.3,1,2.7,1,4.1c-0.1,2-1.4,3.8-3.3,4.5
		C258.9,296.2,258.1,296.4,257.2,296.4z M255.8,284.9c-0.5,0-1,0.1-1.4,0.2c-1.5,0.6-2.6,1.9-2.8,3.5c-0.1,1,0.1,1.9,0.5,2.8
		c0.3,0.9,0.8,1.7,1.5,2.4c1.6,1.3,3.8,1.6,5.8,0.9c1.5-0.5,2.5-1.9,2.5-3.5c0-1.2-0.3-2.4-0.9-3.5c-0.7-1.3-1.9-2.2-3.3-2.6l0,0
		C257,285,256.4,284.9,255.8,284.9L255.8,284.9z"></path><path class="st3" d="M264.7,159.6c-3,0-5.5-2.3-5.7-5.3l-0.3-4.8c-0.2-3.1,2.2-5.8,5.3-6l10.6-0.7c3.1-0.2,5.8,2.2,6,5.3l0.3,4.8
		c0.2,3.1-2.2,5.8-5.3,6l-10.6,0.7L264.7,159.6z M275,144.1h-0.3l-10.6,0.7c-2.3,0.1-4.1,2.2-4,4.5c0,0,0,0,0,0l0.3,4.8
		c0.1,2.4,2.2,4.1,4.5,4c0,0,0,0,0,0l10.6-0.7l0,0c2.3-0.1,4.1-2.2,4-4.5c0,0,0,0,0,0l-0.3-4.8C279.1,145.9,277.3,144.1,275,144.1z"></path><path class="st3" d="M288.7,158c-3,0-5.5-2.3-5.7-5.3l-0.3-4.8c-0.2-3.1,2.2-5.8,5.3-6l10.6-0.7c3.1-0.2,5.8,2.2,6,5.3l0.3,4.8
		c0.2,3.1-2.2,5.8-5.3,6l-10.6,0.7L288.7,158z M299,142.5h-0.3l-10.6,0.7c-2.4,0.1-4.2,2.2-4,4.5c0,0,0,0,0,0l0.3,4.8
		c0.1,1.1,0.6,2.2,1.5,2.9c0.9,0.7,2,1.1,3.1,1l10.6-0.7l0,0c2.3-0.1,4.1-2.2,4-4.5c0,0,0,0,0,0l-0.3-4.8
		C303.1,144.2,301.3,142.4,299,142.5L299,142.5z"></path><path class="st3" d="M280.1,150.5c-0.4,0-0.7-0.3-0.7-0.7c0-0.4,0.3-0.7,0.7-0.7l2.8-0.2c0.4,0,0.7,0.3,0.8,0.6
		c0,0.4-0.3,0.7-0.6,0.8L280.1,150.5L280.1,150.5z"></path><path class="st3" d="M205.8,285c-0.1,0-0.2,0-0.4-0.1l-46.3-27.1c-0.3-0.2-0.5-0.6-0.3-0.9c0,0,0,0,0-0.1c0.2-0.3,0.6-0.5,0.9-0.3
		c0,0,0,0,0.1,0l46.3,27.1c0.3,0.2,0.5,0.6,0.3,1c0,0,0,0,0,0C206.3,284.9,206,285,205.8,285z"></path><ellipse class="st3" transform="matrix(4.292189e-02 -0.9991 0.9991 4.292189e-02 134.948 439.4737)" cx="296.9" cy="149.3" rx="2.6" ry="1.8"></ellipse><ellipse class="st3" transform="matrix(0.9945 -0.105 0.105 0.9945 -14.2577 29.634)" cx="274.2" cy="150.2" rx="1.8" ry="2.6"></ellipse><path class="st3" d="M282.4,172.5c-4.2-0.1-8.3-1.1-12.1-2.8c-0.4-0.2-0.5-0.6-0.3-0.9c0.2-0.4,0.6-0.5,0.9-0.3
		c0.1,0.1,12.6,5.9,20.2-0.1c0.3-0.2,0.8-0.1,1,0.2c0.2,0.3,0.1,0.7-0.1,0.9C289.2,171.6,285.9,172.6,282.4,172.5z"></path><path class="st0" d="M282,151.6c0,0-5.2,8.8-3.7,10.9s6.5,1.5,6.5,1.5"></path><path class="st3" d="M283.1,164.9c-1.8,0-4.3-0.3-5.4-1.9c-1.6-2.3,2.4-9.5,3.7-11.7c0.2-0.3,0.6-0.4,1-0.2c0.3,0.2,0.4,0.6,0.2,1
		c-2.4,4.1-4.5,9.1-3.7,10.2c1,1.4,4.6,1.4,5.9,1.2c0.4,0,0.7,0.2,0.8,0.6c0,0.4-0.2,0.7-0.6,0.8c0,0,0,0,0,0
		C284.3,164.8,283.7,164.9,283.1,164.9z"></path><path class="st3" d="M317.4,157.9c-0.1,0-0.2,0-0.3-0.1l-13.1-6c-0.3-0.2-0.5-0.6-0.3-1c0.2-0.3,0.5-0.4,0.9-0.3l13.1,6
		c0.4,0.2,0.5,0.6,0.4,0.9c0,0,0,0,0,0C317.9,157.8,317.7,157.9,317.4,157.9z"></path><path class="st0" d="M307.8,158.2c0.7-1.9,1.9-3.5,3.6-4.6c2.4-1.6,5.5-2.7,8.4-2.1s4.5,3.6,4.8,6.4c0.2,2.5-0.6,5.1-2.1,7.1
		c-3.5,4.8-9.5,6.8-14.9,3.8"></path><path class="st3" d="M312.8,170.8c-2,0-3.9-0.5-5.6-1.5c-0.3-0.2-0.5-0.6-0.3-0.9s0.6-0.5,0.9-0.3c0,0,0.1,0,0.1,0
		c4.7,2.6,10.5,1.2,14-3.6c1.4-1.9,2.1-4.3,2-6.6c-0.2-2.5-1.7-5.3-4.2-5.8c-2.8-0.4-5.6,0.3-7.9,2c-1.5,1-2.7,2.5-3.3,4.3
		c-0.1,0.4-0.6,0.5-0.9,0.4c-0.3-0.1-0.5-0.5-0.4-0.8c0.7-2,2.1-3.8,3.8-5c2.6-1.9,5.8-2.7,9-2.2c3.2,0.6,5.1,4,5.3,7
		c0.2,2.7-0.6,5.4-2.3,7.6C320.8,168.6,316.9,170.7,312.8,170.8z"></path><path class="st2" d="M378,248.3c0,0,41.7,72.3,31.5,83s-73.7,14.5-73.7,14.5l-11.1-34.6l35.9-3.4l-21.7-49.1L378,248.3z"></path><path class="st3" d="M324.6,311.9c-0.4,0-0.7-0.3-0.7-0.6c0-0.4,0.2-0.7,0.6-0.8l34.9-3.3L329.4,248c-0.2-0.3,0-0.8,0.3-0.9
		c0.3-0.2,0.8,0,0.9,0.3c0,0,0,0,0,0l30.5,60.1c0.1,0.2,0.1,0.4,0,0.6c-0.1,0.2-0.3,0.3-0.5,0.4L324.6,311.9L324.6,311.9z"></path><path class="st3" d="M335.7,346.4c-0.4,0-0.7-0.3-0.7-0.7c0-0.4,0.3-0.7,0.7-0.7c0.5,0,46.3-2.2,59.8-8.3c0.3-0.2,0.8,0,0.9,0.3
		c0,0,0,0,0,0c0.2,0.4,0,0.8-0.4,0.9C382.4,344.2,337.7,346.4,335.7,346.4L335.7,346.4z"></path></g><g id="Medicine_Box"><path class="st0" d="M90.2,187.4l3.9,57.9c0.3,4.1,11.7,6.6,25.4,5.7s24.7-5,24.4-9l-3.9-57.9L90.2,187.4z"></path><path class="st3" d="M138.8,185.6l3.8,56.5c0.1,1-1.8,2.7-6,4.3c-5.5,1.9-11.3,3-17.1,3.3c-1.8,0.1-3.7,0.2-5.5,0.2
		c-11.8,0-18.3-2.7-18.5-4.6l-3.8-56.5L138.8,185.6 M140.1,184.1l-49.9,3.4l3.9,57.9c0.2,3.5,8.7,5.9,19.8,5.9
		c1.8,0,3.7-0.1,5.6-0.2c13.8-0.9,24.7-5,24.4-9L140.1,184.1L140.1,184.1z"></path><ellipse class="st3" transform="matrix(0.9977 -6.714462e-02 6.714462e-02 0.9977 -12.213 8.1491)" cx="115.1" cy="185.8" rx="25" ry="7.4"></ellipse><path class="st3" d="M120.2,179.6L120.2,179.6c11.8,0,18.3,2.7,18.5,4.6c0.1,2.1-7.7,6.5-23.1,7.6c-1.8,0.1-3.7,0.2-5.5,0.2
		c-11.8,0-18.3-2.6-18.4-4.6c-0.1-1,1.8-2.7,6-4.3c5.5-1.9,11.3-3,17.1-3.3C116.5,179.6,118.4,179.6,120.2,179.6 M120.2,178.2
		c-1.8,0-3.7,0.1-5.6,0.2c-13.8,0.9-24.7,5-24.4,9c0.2,3.5,8.7,5.9,19.8,5.9c1.8,0,3.7-0.1,5.6-0.2c13.8-0.9,24.7-5,24.4-9
		C139.8,180.6,131.3,178.2,120.2,178.2z"></path><path class="st0" d="M141,198l2.1,31c0.3,4.1-10.7,8.1-24.4,9s-25.2-1.6-25.4-5.7l-2.1-31c0.3,4.1,11.7,6.6,25.4,5.7
		S141.3,202.1,141,198z"></path><path class="st3" d="M139.9,202.3l1.8,26.9c0.1,1-1.8,2.7-6.1,4.3c-5.5,1.9-11.3,3-17.1,3.3c-1.8,0.1-3.7,0.2-5.5,0.2
		c-11.8,0-18.3-2.6-18.5-4.6l-1.8-26.9c4.1,2.3,11.5,3.2,18.2,3.2c1.9,0,3.8-0.1,5.7-0.2C126.1,207.8,135.5,205.6,139.9,202.3
		 M141,198c0.3,4.1-10.7,8.1-24.4,9c-1.9,0.1-3.8,0.2-5.6,0.2c-11.1,0-19.6-2.4-19.8-5.9l2.1,31c0.2,3.5,8.7,5.9,19.9,5.9
		c1.8,0,3.7-0.1,5.6-0.2c13.8-0.9,24.7-5,24.4-9L141,198z"></path><path class="st2" d="M126.7,216.8l-5,0.3l-0.3-5c-0.1-1-0.9-1.7-1.9-1.7l-3.5,0.2c-1,0.1-1.7,0.9-1.7,1.9l0.3,5l-5,0.3
		c-1,0.1-1.7,0.9-1.7,1.9l0.2,3.5c0.1,1,0.9,1.7,1.9,1.7l5-0.3l0.3,5c0.1,1,0.9,1.7,1.9,1.7c0,0,0,0,0,0l3.5-0.2
		c1-0.1,1.7-0.9,1.7-1.9l-0.3-5l5-0.3c1-0.1,1.7-0.9,1.7-1.9l-0.2-3.5C128.5,217.4,127.7,216.7,126.7,216.8z"></path><path class="st1" d="M129.3,229.8c-0.4,0-0.7-0.3-0.7-0.7c0-0.4,0.3-0.7,0.7-0.7c0,0,0,0,0,0c0.1,0,5.3-0.2,9-2.9
		c0.3-0.2,0.8-0.1,1,0.2c0.2,0.3,0.1,0.8-0.2,1l0,0C136.1,228.6,132.8,229.6,129.3,229.8L129.3,229.8z"></path><path class="st0" d="M89.1,163.3c-1.6,1.4-1.7,3.7-0.3,5.3c0,0,0,0,0,0l12.2,13.8c1.4,1.5,3.7,1.7,5.3,0.3c0,0,0,0,0,0
		c0.8-0.7,1.2-1.6,1.3-2.6c0.1-1-0.3-2-0.9-2.7l-12.2-13.8C93,162.1,90.7,161.9,89.1,163.3C89.1,163.3,89.1,163.3,89.1,163.3z"></path><path class="st3" d="M91.6,162.4c1.1,0,2.1,0.5,2.8,1.3l12.3,13.8c0.7,0.7,1,1.7,0.9,2.7c-0.1,2-1.8,3.5-3.8,3.5
		c-1.1,0-2.1-0.5-2.8-1.3l-12.3-13.8c-1.4-1.5-1.2-3.9,0.3-5.3c0,0,0,0,0,0C89.8,162.7,90.7,162.4,91.6,162.4 M91.6,161
		c-2.8,0-5.2,2.3-5.2,5.2c0,1.3,0.5,2.5,1.3,3.4l12.3,13.8c1.9,2.1,5.2,2.3,7.3,0.4c2.1-1.9,2.3-5.1,0.4-7.3c0,0,0,0,0,0l-12.3-13.8
		C94.5,161.6,93.1,161,91.6,161L91.6,161z"></path><path class="st2" d="M100.5,170.5c0,0,0,1.4-2.1,3.2s-3.6,1.8-3.6,1.8l6.1,6.9c1.4,1.5,3.7,1.7,5.3,0.3c0,0,0,0,0,0
		c0.8-0.7,1.2-1.6,1.3-2.6c0.1-1-0.3-2-0.9-2.7L100.5,170.5z"></path><path class="st0" d="M129.1,128.6c-1.9-0.8-4.1,0.1-4.9,2l-7.2,17c-0.8,1.9,0.1,4.1,2,4.9c0,0,0,0,0,0c0.9,0.4,2,0.4,2.9,0
		c0.9-0.4,1.7-1.1,2.1-2l7.2-17C131.9,131.6,131,129.4,129.1,128.6z"></path><path class="st3" d="M127.6,128.3c2.1,0,3.8,1.7,3.8,3.8c0,0.5-0.1,1-0.3,1.5l-7.2,17c-0.4,0.9-1.1,1.6-2.1,2
		c-0.4,0.2-0.9,0.3-1.4,0.3c-0.5,0-1-0.1-1.5-0.3c-1.9-0.8-2.8-3-2-4.9c0,0,0,0,0,0l7.2-17C124.8,129.2,126.1,128.3,127.6,128.3
		 M127.6,126.9c-2.1,0-3.9,1.2-4.7,3.1l-7.2,17c-1.1,2.6,0.1,5.6,2.7,6.7c0,0,0,0,0,0c0.6,0.3,1.3,0.4,2,0.4c0.7,0,1.3-0.1,1.9-0.4
		c1.3-0.5,2.3-1.5,2.8-2.8l7.2-17c1.1-2.6-0.1-5.7-2.7-6.8C129,127.1,128.3,126.9,127.6,126.9L127.6,126.9z"></path><path class="st2" d="M127.5,142.1c0,0-1.3,0.6-3.8-0.5s-3.1-2.4-3.1-2.4l-3.6,8.5c-0.8,1.9,0.1,4.1,2,4.9c0,0,0,0,0,0
		c0.9,0.4,2,0.4,2.9,0c0.9-0.4,1.7-1.1,2.1-2L127.5,142.1z"></path><path class="st0" d="M116.1,124.5c-1.7,1.2-4,0.7-5.2-1c0,0,0,0,0,0l-10.3-15.3c-1.2-1.7-0.7-4,1-5.2c0,0,0,0,0,0
		c1.7-1.2,4-0.7,5.2,1c0,0,0,0,0,0l10.3,15.3C118.2,121,117.8,123.4,116.1,124.5z"></path><path class="st3" d="M103.7,102.3c0.2,0,0.5,0,0.7,0.1c1,0.2,1.8,0.8,2.4,1.6l10.3,15.3c1.2,1.7,0.7,4.1-1,5.2
		c-0.6,0.4-1.3,0.6-2.1,0.6c-0.2,0-0.5,0-0.7-0.1c-1-0.2-1.8-0.8-2.4-1.6l-10.3-15.3c-1.2-1.7-0.7-4.1,1-5.2
		C102.2,102.5,102.9,102.3,103.7,102.3 M103.7,100.9L103.7,100.9c-2.5,0-4.6,1.7-5.1,4.2c-0.3,1.3,0,2.7,0.8,3.9l10.3,15.3
		c0.8,1.1,1.9,1.9,3.3,2.2c0.3,0.1,0.7,0.1,1,0.1c1,0,2-0.3,2.9-0.9c2.4-1.6,3-4.8,1.4-7.2l-10.3-15.3c-0.8-1.1-1.9-1.9-3.3-2.2
		C104.3,100.9,104,100.9,103.7,100.9L103.7,100.9z"></path><path class="st2" d="M111.9,111.6c0,0-1.3-0.3-3.6,1.2s-2.6,3-2.6,3l-5.2-7.7c-1.2-1.7-0.7-4,1-5.2c0,0,0,0,0,0
		c1.7-1.2,4-0.7,5.2,1c0,0,0,0,0,0L111.9,111.6z"></path><path class="st0" d="M87.4,138.5l-1,3.3c-0.5,1.8,3,4.4,8,5.9s9.3,1.1,9.9-0.8l1-3.3L87.4,138.5z"></path><path class="st3" d="M87.4,138.5l17.8,5.1l-1,3.3c-0.3,1.1-2,1.6-4.3,1.6c-1.9,0-3.8-0.3-5.6-0.9c-4.9-1.4-8.5-4-8-5.9L87.4,138.5
		 M87.4,137.1c-0.6,0-1.2,0.4-1.3,1l-0.9,3.3c-0.3,1.1-0.1,2.7,2.5,4.6c2,1.4,4.2,2.4,6.5,3c1.9,0.6,4,0.9,6,0.9
		c4.2,0,5.3-1.7,5.6-2.7l0.9-3.3c0.1-0.4,0.1-0.7-0.1-1.1c-0.2-0.3-0.5-0.6-0.8-0.7l-17.8-5.1C87.7,137.1,87.6,137.1,87.4,137.1
		L87.4,137.1z"></path><ellipse class="st0" transform="matrix(0.2733 -0.9619 0.9619 0.2733 -65.6042 195.1855)" cx="96.4" cy="141" rx="3.5" ry="9.3"></ellipse><path class="st3" d="M91.7,136.8c1.9,0,3.8,0.3,5.6,0.9c4.9,1.4,8.5,4,8,5.9c-0.3,1.1-2,1.6-4.3,1.6c-1.9,0-3.8-0.3-5.6-0.9
		c-4.9-1.4-8.5-4-8-5.9C87.7,137.4,89.4,136.8,91.7,136.8 M91.7,135.4L91.7,135.4c-4.2,0-5.3,1.7-5.6,2.7s-0.1,2.7,2.5,4.6
		c2,1.4,4.2,2.4,6.5,3c2,0.6,4,0.9,6,0.9c4.2,0,5.3-1.7,5.6-2.7s0.1-2.7-2.5-4.6c-2-1.4-4.2-2.4-6.5-3
		C95.8,135.7,93.7,135.4,91.7,135.4L91.7,135.4z"></path><path class="st3" d="M89.3,143c-0.4,0-0.7-0.3-0.7-0.7c0-0.3,0.2-0.6,0.5-0.7l12.5-3.1c0.4-0.1,0.8,0.1,0.8,0.5
		c0.1,0.4-0.1,0.8-0.5,0.9L89.5,143H89.3z"></path><path class="st0" d="M136,147.1l0.8-3.4c0.4-1.9,4.9-2.4,9.8-1.2s8.7,3.7,8.2,5.5l-0.8,3.4L136,147.1z"></path><path class="st3" d="M141.6,141.9c1.7,0,3.4,0.2,5,0.6c5,1.2,8.7,3.7,8.2,5.5l-0.8,3.4l-18-4.4l0.8-3.4
		C137.1,142.5,139,141.9,141.6,141.9 M141.6,140.5L141.6,140.5c-3.5,0-5.7,1-6.2,2.9l-0.8,3.4c-0.2,0.7,0.3,1.5,1,1.7l18,4.4
		c0.1,0,0.2,0,0.3,0c0.6,0,1.2-0.5,1.4-1.1l0.8-3.4c0.8-3.2-4.2-6-9.2-7.2C145.2,140.7,143.4,140.5,141.6,140.5L141.6,140.5z"></path><ellipse class="st3" transform="matrix(0.2353 -0.9719 0.9719 0.2353 -34.1608 255.0818)" cx="145" cy="149.3" rx="3.5" ry="9.3"></ellipse><path class="st3" d="M140.8,145.2c1.7,0,3.4,0.2,5,0.6c5,1.2,8.6,3.7,8.2,5.6c-0.3,1.2-2.2,1.8-4.8,1.8c-1.7,0-3.4-0.2-5-0.6
		c-5-1.2-8.7-3.7-8.2-5.5C136.3,145.9,138.2,145.2,140.8,145.2 M140.8,143.8c-3.5,0-5.7,1-6.1,2.9c-0.3,1.1,0,2.7,2.6,4.5
		c2,1.3,4.3,2.2,6.6,2.7c1.8,0.4,3.6,0.7,5.4,0.7c3.5,0,5.7-1,6.2-2.9c0.2-1.1,0-2.7-2.6-4.5c-2-1.3-4.3-2.2-6.6-2.7
		C144.4,144.1,142.6,143.9,140.8,143.8L140.8,143.8z"></path><path class="st3" d="M148.8,154.2c-0.2,0-0.4-0.1-0.5-0.2l-9.3-8.9c-0.3-0.3-0.3-0.7,0-1c0,0,0,0,0,0c0.3-0.3,0.7-0.3,1,0
		c0,0,0,0,0,0l9.3,8.9c0.3,0.3,0.3,0.7,0,1c0,0,0,0,0,0C149.2,154.2,149,154.2,148.8,154.2z"></path><path class="st0" d="M115.2,184.1l1.6,3.1c0.9,1.7,5.3,1.2,9.8-1.2c4.6-2.3,7.5-5.6,6.7-7.3l-1.6-3.1L115.2,184.1z"></path><path class="st3" d="M131.7,175.6l1.6,3.1c0.9,1.7-2.1,5-6.7,7.3c-2.3,1.3-4.8,2-7.3,2.2c-1.2,0-2.1-0.3-2.5-1l-1.6-3.1
		L131.7,175.6 M131.7,174.2c-0.2,0-0.4,0.1-0.6,0.1l-16.5,8.5c-0.3,0.2-0.6,0.5-0.7,0.8c-0.1,0.4-0.1,0.7,0.1,1.1l1.6,3.1
		c0.4,0.8,1.4,1.8,3.7,1.8c2.8-0.2,5.5-1,8-2.3c2.1-1.1,4.1-2.5,5.8-4.2c2.1-2.4,2-4,1.5-5l-1.6-3.1c-0.2-0.3-0.5-0.6-0.8-0.7
		C132,174.2,131.8,174.2,131.7,174.2L131.7,174.2z"></path><ellipse class="st0" transform="matrix(0.8892 -0.4576 0.4576 0.8892 -68.5911 76.395)" cx="123.4" cy="179.8" rx="9.3" ry="3.5"></ellipse><path class="st3" d="M129.2,174.6c1.2,0,2.1,0.3,2.5,1c0.9,1.7-2.1,5-6.7,7.3c-2.3,1.3-4.8,2-7.3,2.2c-1.2,0-2.2-0.3-2.5-1
		c-0.9-1.7,2.1-5,6.7-7.3C124.1,175.5,126.6,174.7,129.2,174.6 M129.2,173.1L129.2,173.1c-2.8,0.2-5.5,1-8,2.3
		c-4.6,2.4-8.8,6.2-7.3,9.2c0.4,0.8,1.4,1.8,3.7,1.8c2.8-0.2,5.5-1,8-2.3c4.6-2.4,8.8-6.2,7.3-9.2
		C132.5,174.1,131.5,173.2,129.2,173.1L129.2,173.1z"></path><path class="st3" d="M119.1,186.3c-0.1,0-0.3,0-0.4-0.1c-0.3-0.2-0.4-0.6-0.2-1c0,0,0,0,0,0l7-10.8c0.2-0.3,0.6-0.4,1-0.2
		c0,0,0,0,0,0c0.3,0.2,0.4,0.6,0.2,1c0,0,0,0,0,0l-7,10.8C119.6,186.1,119.4,186.3,119.1,186.3z"></path><path class="st0" d="M124.1,92.4l-4.4,12.1c-1.3,3.6,7.6,10.2,19.8,14.7s23.3,5.2,24.6,1.6l4.4-12.1L124.1,92.4z"></path><path class="st3" d="M124.9,94.2l41.8,15.3l-4,10.8c-0.2,0.6-1.7,1.4-5.1,1.4c-4.7,0-11.1-1.4-17.7-3.8c-5.2-1.8-10.1-4.3-14.7-7.5
		c-3.9-2.9-4.6-4.8-4.3-5.4L124.9,94.2 M124.1,92.4l-4.4,12.1c-1.3,3.6,7.6,10.2,19.8,14.7c7,2.6,13.6,3.9,18.2,3.9
		c3.5,0,5.8-0.8,6.4-2.3l4.4-12.1C168.5,108.7,124.1,92.4,124.1,92.4z"></path><ellipse class="st0" transform="matrix(0.344 -0.939 0.939 0.344 1.5343 203.3488)" cx="146.3" cy="100.6" rx="7" ry="23.7"></ellipse><path class="st3" d="M130.5,91.5c4.6,0,11.1,1.4,17.7,3.8c5.2,1.8,10.1,4.3,14.7,7.5c3.9,2.9,4.6,4.8,4.3,5.4s-1.7,1.4-5.1,1.4
		c-4.7,0-11.1-1.4-17.7-3.8c-5.2-1.8-10.1-4.3-14.7-7.5c-3.9-2.9-4.6-4.8-4.3-5.4S127.1,91.5,130.5,91.5 M130.5,90.1
		c-3.5,0-5.8,0.8-6.4,2.3c-1.3,3.6,7.6,10.2,19.8,14.7c7,2.6,13.6,3.9,18.2,3.9c3.5,0,5.8-0.8,6.4-2.3c1.3-3.6-7.6-10.2-19.8-14.7
		C141.7,91.4,135.1,90.1,130.5,90.1L130.5,90.1z"></path><path class="st1" d="M124.6,108.9c-0.1,0-0.2,0-0.2,0c-0.4-0.1-0.6-0.5-0.4-0.9l2.8-8.1c0.1-0.4,0.5-0.6,0.9-0.4c0,0,0,0,0,0
		c0.4,0.1,0.6,0.5,0.4,0.9l-2.8,8.1C125.1,108.8,124.8,108.9,124.6,108.9z"></path><path class="st1" d="M128.8,112.3c-0.1,0-0.2,0-0.2,0c-0.4-0.1-0.5-0.5-0.4-0.9c0,0,0,0,0,0l3.1-8.2c0.1-0.4,0.5-0.5,0.9-0.4
		c0.4,0.1,0.5,0.5,0.4,0.9c0,0,0,0,0,0l-3.1,8.2C129.4,112.1,129.1,112.3,128.8,112.3z"></path><path class="st1" d="M134.2,114.8c-0.4,0-0.7-0.3-0.7-0.7c0-0.1,0-0.2,0.1-0.3l3.1-8.2c0.1-0.4,0.5-0.5,0.9-0.4c0,0,0,0,0,0
		c0.4,0.1,0.5,0.5,0.4,0.9l-3.1,8.2C134.8,114.6,134.5,114.8,134.2,114.8z"></path><path class="st1" d="M139.7,117c-0.1,0-0.2,0-0.2-0.1c-0.4-0.1-0.5-0.5-0.4-0.9c0,0,0,0,0,0l3.1-8.2c0.1-0.4,0.5-0.5,0.9-0.4
		c0.4,0.1,0.5,0.5,0.4,0.9l-3.1,8.2C140.2,116.8,140,117,139.7,117z"></path><path class="st1" d="M145.6,119.1c-0.1,0-0.2,0-0.2,0c-0.4-0.1-0.5-0.5-0.4-0.9c0,0,0,0,0,0l3.1-8.2c0.1-0.4,0.5-0.5,0.9-0.4
		c0.4,0.1,0.5,0.5,0.4,0.9l-3.1,8.2C146.2,119,145.9,119.1,145.6,119.1z"></path><path class="st1" d="M151.5,120.7c-0.1,0-0.2,0-0.3,0c-0.4-0.1-0.5-0.5-0.4-0.9c0,0,0,0,0,0l3.1-8.2c0.1-0.4,0.5-0.5,0.9-0.4
		c0.4,0.1,0.5,0.5,0.4,0.9l-3.1,8.2C152,120.6,151.8,120.7,151.5,120.7z"></path><path class="st1" d="M157.7,121.2c-0.1,0-0.2,0-0.3,0c-0.4-0.1-0.5-0.5-0.4-0.9c0,0,0,0,0,0l3.1-8.2c0.1-0.4,0.5-0.5,0.9-0.4
		c0.4,0.1,0.5,0.5,0.4,0.9l-3.1,8.2C158.2,121.1,158,121.2,157.7,121.2z"></path></g></svg>