<svg
        width="100.03999633789059"
        height="60.10343431588789"
        viewBox="0 0 80.89473684210526 93.42790335611677"
        className="looka-1j8o68f"
        xmlns="http://www.w3.org/2000/svg"
      >
        <defs id="SvgjsDefs1011"></defs>
        <g id="SvgjsG1012" featurekey="tOsHRK-0" transform="matrix(3.681152074008206,0,0,3.681152074008206,-11.011843964888822,-10.99694752577708)" fill="#fdfdfd"><g xmlns="http://www.w3.org/2000/svg" transform="translate(0,-1020.3622)"><path style="text-indent:0;text-transform:none;direction:ltr;block-progression:tb;baseline-shift:baseline;color:;enable-background:accumulate;" d="M 8.34375 3 C 7.3825818 2.9315643 6.3948755 3.139575 5.5 3.65625 C 3.1136657 5.03395 2.2784995 8.1137 3.65625 10.5 C 5.0340005 12.8864 8.1136662 13.72155 10.5 12.34375 C 12.886335 10.96605 13.7215 7.8864 12.34375 5.5 C 11.482656 4.0085625 9.9456971 3.1140596 8.34375 3 z M 8.28125 4 C 9.4044333 4.0786319 10.474284 4.6495547 11.1875 5.59375 L 4.3125 9.53125 C 3.5433338 7.6986485 4.2320409 5.5519535 6 4.53125 C 6.7193622 4.1159375 7.5132417 3.9462332 8.28125 4 z M 23.1875 5.71875 C 22.291304 5.71875 21.401232 6.03625 20.71875 6.71875 L 17.5625 9.90625 A 0.50005 0.50005 0 0 0 17.375 10.0625 L 14.34375 13.09375 C 12.978787 14.45865 12.978787 16.66625 14.34375 18.03125 C 15.708714 19.39625 17.916286 19.39625 19.28125 18.03125 L 22.375 14.96875 A 0.50821532 0.50821532 0 0 0 22.40625 14.9375 L 22.4375 14.90625 A 0.50821532 0.50821532 0 0 0 22.53125 14.78125 L 25.65625 11.6875 C 27.021213 10.3226 27.021213 8.08375 25.65625 6.71875 C 24.973768 6.03625 24.083696 5.71875 23.1875 5.71875 z M 11.65625 6.4375 C 12.450732 8.2781474 11.780001 10.441095 10 11.46875 C 8.2210371 12.495899 6.0098055 11.981131 4.8125 10.375 L 11.65625 6.4375 z M 23.1875 6.6875 C 23.825019 6.6875 24.444771 6.94475 24.9375 7.4375 C 25.922959 8.423 25.922959 9.98335 24.9375 10.96875 L 22.0625 13.875 L 18.53125 10.34375 L 21.40625 7.4375 C 21.89898 6.94475 22.549981 6.6875 23.1875 6.6875 z M 17.8125 11.03125 L 21.34375 14.59375 L 18.59375 17.34375 C 17.608291 18.32925 16.04796 18.32925 15.0625 17.34375 C 14.077041 16.35825 14.077041 14.7979 15.0625 13.8125 L 17.8125 11.03125 z M 6.5 15 C 5.603804 15 4.7137318 15.34875 4.03125 16.03125 C 2.6662864 17.39615 2.6662864 19.6351 4.03125 21 L 7.1875 24.125 A 0.50825068 0.50825068 0 0 0 7.40625 24.34375 L 10.375 27.34375 C 11.739963 28.70865 13.978787 28.70865 15.34375 27.34375 C 16.708714 25.97875 16.708714 23.77125 15.34375 22.40625 L 12.28125 19.375 A 0.50005 0.50005 0 0 0 12.15625 19.21875 L 8.96875 16.03125 C 8.2862682 15.34875 7.396196 15 6.5 15 z M 6.5 16 C 7.1375186 16 7.7572703 16.25725 8.25 16.75 L 11.15625 19.65625 L 7.625 23.1875 L 4.71875 20.28125 C 3.7332906 19.29575 3.7332906 17.7354 4.71875 16.75 C 5.2114797 16.25725 5.8624814 16 6.5 16 z M 24 17 C 22.971581 17 21.935204 17.3773 21.15625 18.15625 C 19.59834 19.71415 19.59834 22.28585 21.15625 23.84375 C 22.714159 25.40175 25.285841 25.40175 26.84375 23.84375 C 28.40166 22.28585 28.40166 19.71415 26.84375 18.15625 C 26.064796 17.3773 25.028419 17 24 17 z M 24 18 C 24.600194 18 25.2038 18.198757 25.71875 18.5625 L 21.5625 22.71875 C 20.736351 21.549122 20.824701 19.925334 21.875 18.875 C 22.46288 18.2871 23.236963 18 24 18 z M 26.4375 19.25 C 27.279083 20.421218 27.181273 22.068692 26.125 23.125 C 25.068727 24.181308 23.421203 24.279111 22.25 23.4375 L 26.4375 19.25 z M 11.84375 20.34375 L 14.625 23.09375 C 15.610459 24.07925 15.610459 25.67075 14.625 26.65625 C 13.63954 27.64165 12.079209 27.64165 11.09375 26.65625 L 8.3125 23.875 L 11.84375 20.34375 z " transform="translate(0,1020.3622)" fill="#fdfdcb" fill-opacity="1" stroke="none" marker="none" visibility="visible" display="inline" overflow="visible"></path></g></g>
        
      </svg>