<svg transform="scale(1)" version="1.1" id="Layer_1" xmlns="http://www.w3.org/2000/svg" xmlns:xlink="http://www.w3.org/1999/xlink" x="0px" y="0px" viewBox="0 0 500 500" xml:space="preserve" class="show_show__wrapper__graphic__5Waiy "><title>React</title><style type="text/css">
	.st0{fill:#FFFFFF;}
	.st1{fill:#D1D3D4;}
	.st2{fill:#231F20;}
	.st3{fill:#68E1FD;}
</style><g id="Envelop"><path class="st0" d="M414.2,130.1H85.8c-11,0-19.9,9.4-19.9,21v174.1c0,11.6,8.9,21,19.9,21h328.5c11,0,19.9-9.4,19.9-21V151.1
		C434.2,139.5,425.2,130.1,414.2,130.1z"></path><path class="st1" d="M414.2,347H85.8c-11.4,0-20.6-9.7-20.6-21.7V151.1c0-12,9.3-21.7,20.6-21.7h328.5c11.4,0,20.6,9.7,20.6,21.7
		v174.2C434.9,337.2,425.6,347,414.2,347z M85.8,130.8c-10.6,0-19.2,9.1-19.2,20.3v174.2c0,11.2,8.6,20.3,19.2,20.3h328.5
		c10.6,0,19.2-9.1,19.2-20.3V151.1c0-11.2-8.6-20.3-19.2-20.3L85.8,130.8z"></path><path class="st1" d="M402,204.3h-63.9c-0.4,0-0.7-0.3-0.7-0.7c0,0,0,0,0,0v-38.9c0-0.4,0.3-0.7,0.7-0.7l0,0H402
		c0.4,0,0.7,0.3,0.7,0.7c0,0,0,0,0,0v38.9C402.7,204,402.4,204.3,402,204.3z M338.8,202.9h62.5v-37.5h-62.5L338.8,202.9z"></path><path class="st1" d="M390,177.2h-39.4c-0.4,0-0.7-0.3-0.7-0.7s0.3-0.7,0.7-0.7c0,0,0,0,0,0H390c0.4,0,0.7,0.3,0.7,0.7
		C390.7,176.9,390.4,177.2,390,177.2z"></path><path class="st1" d="M380.3,189.6h-29.7c-0.4,0-0.7-0.3-0.7-0.7s0.3-0.7,0.7-0.7c0,0,0,0,0,0h29.7c0.4,0,0.7,0.3,0.7,0.7
		C381,189.3,380.7,189.6,380.3,189.6L380.3,189.6z"></path></g><g id="medicine"><path class="st0" d="M331.4,268.5h75.2l0,0v92.4c0,4.1-3.3,7.5-7.5,7.5c0,0,0,0,0,0h-60.2c-4.1,0-7.5-3.3-7.5-7.5c0,0,0,0,0,0
		L331.4,268.5L331.4,268.5z"></path><path class="st2" d="M406.6,268.5v92.4c0,4.1-3.3,7.5-7.5,7.5c0,0,0,0,0,0h-60.2c-4.1,0-7.5-3.3-7.5-7.5c0,0,0,0,0,0v-92.4H406.6
		 M406.6,267.1h-75.2c-0.8,0-1.4,0.6-1.4,1.4v92.4c0,4.9,4,8.9,8.9,8.9h60.2c4.9,0,8.9-4,8.9-8.9v-92.4
		C408,267.7,407.3,267.1,406.6,267.1z"></path><rect class="st1" x="331.4" y="293.6" width="75.2" height="36.8"></rect><path class="st3" d="M328.4,237.8h81.2c2,0,3.7,1.7,3.7,3.7v23.2c0,2-1.7,3.7-3.7,3.7h-81.2c-2,0-3.7-1.7-3.7-3.7v-23.2
		C324.6,239.5,326.3,237.8,328.4,237.8z"></path><path class="st2" d="M409.6,237.8c2,0,3.7,1.7,3.7,3.7v23.2c0,2-1.7,3.7-3.7,3.7h-81.2c-2,0-3.7-1.7-3.7-3.7v-23.2
		c0-2,1.7-3.7,3.7-3.7L409.6,237.8 M409.6,236.4h-81.2c-2.8,0-5.1,2.3-5.1,5.1v23.2c0,2.8,2.3,5.1,5.1,5.1h81.2
		c2.8,0,5.1-2.3,5.1-5.1v-23.2C414.7,238.7,412.4,236.4,409.6,236.4z"></path><path class="st2" d="M332.2,267.6c-0.4,0-0.7-0.3-0.7-0.7v0v-27.6c0-0.4,0.3-0.7,0.7-0.7c0.4,0,0.7,0.3,0.7,0.7V267
		C332.9,267.4,332.6,267.6,332.2,267.6z"></path><path class="st2" d="M341.4,267.6c-0.4,0-0.7-0.3-0.7-0.7v0v-27.6c0-0.4,0.3-0.7,0.7-0.7c0.4,0,0.7,0.3,0.7,0.7c0,0,0,0,0,0V267
		C342.1,267.4,341.8,267.6,341.4,267.6z"></path><path class="st2" d="M350.6,267.6c-0.4,0-0.7-0.3-0.7-0.7v0v-27.6c0-0.4,0.3-0.7,0.7-0.7c0.4,0,0.7,0.3,0.7,0.7V267
		C351.3,267.4,351,267.6,350.6,267.6z"></path><path class="st2" d="M359.8,267.6c-0.4,0-0.7-0.3-0.7-0.7v-27.6c0-0.4,0.3-0.7,0.7-0.7c0.4,0,0.7,0.3,0.7,0.7c0,0,0,0,0,0V267
		C360.5,267.4,360.1,267.7,359.8,267.6z"></path><path class="st2" d="M369,267.6c-0.4,0-0.7-0.3-0.7-0.7v-27.6c0-0.4,0.3-0.7,0.7-0.7c0.4,0,0.7,0.3,0.7,0.7c0,0,0,0,0,0V267
		C369.7,267.4,369.4,267.7,369,267.6z"></path><path class="st2" d="M378.1,267.6c-0.4,0-0.7-0.3-0.7-0.7v-27.6c0-0.4,0.3-0.7,0.7-0.7c0.4,0,0.7,0.3,0.7,0.7V267
		C378.8,267.4,378.5,267.7,378.1,267.6z"></path><path class="st2" d="M387.3,267.6c-0.4,0-0.7-0.3-0.7-0.7v-27.6c0-0.4,0.3-0.7,0.7-0.7c0.4,0,0.7,0.3,0.7,0.7c0,0,0,0,0,0V267
		C388,267.4,387.7,267.7,387.3,267.6z"></path><path class="st2" d="M396.5,267.6c-0.4,0-0.7-0.3-0.7-0.7v0v-27.6c0-0.4,0.3-0.7,0.7-0.7c0.4,0,0.7,0.3,0.7,0.7V267
		C397.2,267.4,396.9,267.7,396.5,267.6z"></path><path class="st2" d="M405.7,267.6c-0.4,0-0.7-0.3-0.7-0.7v0v-27.6c0-0.4,0.3-0.7,0.7-0.7c0.4,0,0.7,0.3,0.7,0.7c0,0,0,0,0,0V267
		C406.4,267.4,406,267.7,405.7,267.6z"></path></g><g id="Receipt"><polygon class="st0" points="316.9,152.1 316.9,360.1 115.7,360.1 115.7,115.3 277.8,115.3 	"></polygon><path class="st2" d="M277.8,115.3l39.1,36.8v208H115.7V115.3H277.8 M277.8,113.9H115.7c-0.8,0-1.4,0.6-1.4,1.4l0,0v244.8
		c0,0.8,0.6,1.4,1.4,1.4h201.2c0.8,0,1.4-0.6,1.4-1.4v-208c0-0.4-0.2-0.7-0.5-1l-39.1-36.8C278.4,114.1,278.1,114,277.8,113.9
		L277.8,113.9z"></path><path class="st3" d="M234.1,145.1h-11.2v-11.2c0-1.7-1.3-3-3-3h-7.2c-1.7,0-3,1.3-3,3v11.2h-11.2c-1.7,0-3,1.3-3,3v7.2
		c0,1.7,1.3,3,3,3h11.2v11.2c0,1.7,1.3,3,3,3h7.2c1.7,0,3-1.3,3-3v-11.2h11.2c1.7,0,3-1.3,3-3v-7.2
		C237.1,146.4,235.8,145.1,234.1,145.1z"></path><path class="st1" d="M232.9,192.7h-89.8c-0.4,0-0.7-0.3-0.7-0.7c0-0.4,0.3-0.7,0.7-0.7c0,0,0,0,0,0h89.8c0.4,0,0.7,0.3,0.7,0.7
		C233.6,192.4,233.3,192.7,232.9,192.7C232.9,192.7,232.9,192.7,232.9,192.7z"></path><path class="st1" d="M289.5,192.7H259c-0.4,0-0.7-0.3-0.7-0.7c0-0.4,0.3-0.7,0.7-0.7h30.5c0.4,0,0.7,0.3,0.7,0.7
		S289.9,192.7,289.5,192.7C289.5,192.7,289.5,192.7,289.5,192.7L289.5,192.7z"></path><path class="st1" d="M212.6,212.2h-69.5c-0.4,0-0.7-0.3-0.7-0.7c0-0.4,0.3-0.7,0.7-0.7c0,0,0,0,0,0h69.5c0.4,0,0.7,0.3,0.7,0.7
		C213.3,211.8,213,212.2,212.6,212.2C212.6,212.2,212.6,212.2,212.6,212.2z"></path><path class="st1" d="M286.1,212.2H259c-0.4,0-0.7-0.3-0.7-0.7c0-0.4,0.3-0.7,0.7-0.7h27.1c0.4,0,0.7,0.3,0.7,0.7
		S286.5,212.2,286.1,212.2C286.1,212.2,286.1,212.2,286.1,212.2L286.1,212.2z"></path><path class="st1" d="M222.7,231.6h-79.6c-0.4,0-0.7-0.3-0.7-0.7c0-0.4,0.3-0.7,0.7-0.7c0,0,0,0,0,0h79.6c0.4,0,0.7,0.3,0.7,0.7
		C223.4,231.3,223.1,231.6,222.7,231.6z"></path><path class="st1" d="M289.5,231.6H259c-0.4,0-0.7-0.3-0.7-0.7s0.3-0.7,0.7-0.7c0,0,0,0,0,0h30.5c0.4,0,0.7,0.3,0.7,0.7
		C290.2,231.3,289.9,231.6,289.5,231.6L289.5,231.6z"></path><path class="st1" d="M212.6,251h-69.5c-0.4,0-0.7-0.3-0.7-0.7c0-0.4,0.3-0.7,0.7-0.7c0,0,0,0,0,0h69.5c0.4,0,0.7,0.3,0.7,0.7
		C213.3,250.7,213,251,212.6,251C212.6,251,212.6,251,212.6,251z"></path><path class="st1" d="M284.4,251H259c-0.4,0-0.7-0.3-0.7-0.7c0-0.4,0.3-0.7,0.7-0.7h25.4c0.4,0,0.7,0.3,0.7,0.7S284.8,251,284.4,251
		C284.4,251,284.4,251,284.4,251L284.4,251z"></path><path class="st1" d="M232.9,270.4h-89.8c-0.4,0-0.7-0.3-0.7-0.7c0-0.4,0.3-0.7,0.7-0.7c0,0,0,0,0,0h89.8c0.4,0,0.7,0.3,0.7,0.7
		C233.6,270.1,233.3,270.4,232.9,270.4z"></path><path class="st1" d="M289.5,270.4H259c-0.4,0-0.7-0.3-0.7-0.7c0-0.4,0.3-0.7,0.7-0.7h30.5c0.4,0,0.7,0.3,0.7,0.7
		C290.2,270.1,289.9,270.4,289.5,270.4L289.5,270.4z"></path><path class="st1" d="M202.6,289.8h-59.5c-0.4,0-0.7-0.3-0.7-0.7c0-0.4,0.3-0.7,0.7-0.7c0,0,0,0,0,0h59.5c0.4,0,0.7,0.3,0.7,0.7
		C203.3,289.5,203,289.8,202.6,289.8z"></path><path class="st1" d="M289.5,289.8H259c-0.4,0-0.7-0.3-0.7-0.7c0-0.4,0.3-0.7,0.7-0.7h30.5c0.4,0,0.7,0.3,0.7,0.7
		C290.2,289.5,289.9,289.8,289.5,289.8L289.5,289.8z"></path><path class="st3" d="M291.7,310.9H140.9c-0.4,0-0.7-0.3-0.7-0.7c0-0.4,0.3-0.7,0.7-0.7h150.8c0.4,0,0.7,0.3,0.7,0.7
		S292.1,310.9,291.7,310.9C291.7,310.9,291.7,310.9,291.7,310.9L291.7,310.9z"></path><path class="st1" d="M291.7,330.5h-30.5c-0.4,0-0.7-0.3-0.7-0.7c0-0.4,0.3-0.7,0.7-0.7h30.5c0.4,0,0.7,0.3,0.7,0.7
		S292.1,330.5,291.7,330.5C291.7,330.5,291.7,330.5,291.7,330.5z"></path><polyline class="st2" points="277.8,115.3 277.8,151.7 316.9,151.7 	"></polyline></g><g id="Tablet"><path class="st0" d="M317.5,354.5c0,5.5-4.4,9.9-9.9,9.9c0,0,0,0,0,0H259c-5.5,0.2-10-4.1-10.2-9.6c-0.2-5.5,4.1-10,9.6-10.2
		c0.2,0,0.4,0,0.6,0h48.6C313.1,344.6,317.5,349,317.5,354.5z"></path><path class="st2" d="M307.6,344.6c5.5-0.2,10,4.1,10.2,9.6c0.2,5.5-4.1,10-9.6,10.2c-0.2,0-0.4,0-0.6,0H259
		c-5.5,0.2-10-4.1-10.2-9.6c-0.2-5.5,4.1-10,9.6-10.2c0.2,0,0.4,0,0.6,0H307.6 M307.6,343.2H259c-6.2-0.2-11.4,4.7-11.6,11
		c-0.2,6.2,4.7,11.4,11,11.6c0.2,0,0.4,0,0.7,0h48.6c6.2-0.2,11.1-5.4,11-11.6C318.4,348.2,313.6,343.4,307.6,343.2z"></path><path class="st3" d="M283.3,344.6c0,0-3.1,1.7-3.1,9.9c0,7.6,3.1,9.9,3.1,9.9H259c-5.5,0.2-10-4.1-10.2-9.6
		c-0.2-5.5,4.1-10,9.6-10.2c0.2,0,0.4,0,0.6,0H283.3z"></path><path class="st0" d="M270.8,370.6c0.1,5.5,4.7,9.8,10.1,9.7c0,0,0,0,0,0l48.6-1.2c5.5-0.1,9.8-4.7,9.6-10.1
		c-0.1-2.6-1.2-5.1-3.1-6.9c-1.9-1.8-4.4-2.8-7.1-2.7l-48.6,1.2C275,360.6,270.7,365.1,270.8,370.6
		C270.8,370.6,270.8,370.6,270.8,370.6z"></path><path class="st2" d="M329.3,359.3c5.5-0.1,9.9,4.3,10,9.8c0.1,5.5-4.3,9.9-9.8,10l-48.6,1.2h-0.2c-5.5,0.1-9.9-4.3-10-9.8
		c-0.1-5.5,4.3-9.9,9.8-10l48.6-1.2H329.3 M329.4,357.9h-0.3l-48.6,1.2c-6.2,0.1-11.2,5.2-11.2,11.4s5.2,11.2,11.4,11.2h0.2
		l48.6-1.2c6.2-0.2,11.1-5.3,11-11.6C340.5,362.8,335.4,357.9,329.4,357.9L329.4,357.9z"></path><path class="st3" d="M304.8,359.9c2,2.8,3.1,6.1,3.2,9.6c-0.1,3.6-1.1,7-2.8,10.2l24.3-0.6c5.5-0.1,9.8-4.6,9.7-10.1
		c-0.1-2.6-1.2-5.1-3.1-7c-1.9-1.8-4.4-2.8-7.1-2.7L304.8,359.9z"></path></g><g id="medicine-2"><path class="st2" d="M219.6,361.4v8.4c0,4.7-10.1,8.4-22.6,8.4s-22.6-3.8-22.6-8.4v-8.4H219.6z"></path><path class="st2" d="M219.6,361.4v8.4c0,4.7-10.1,8.4-22.6,8.4s-22.6-3.8-22.6-8.4v-8.4H219.6 M219.6,360h-45.2
		c-0.8,0-1.4,0.6-1.4,1.4v8.4c0,6.4,12.4,9.8,24,9.8s24-3.5,24-9.8v-8.4C221,360.6,220.4,360,219.6,360L219.6,360z"></path><ellipse class="st0" cx="197" cy="361.4" rx="22.6" ry="8.4"></ellipse><path class="st2" d="M197,352.9c12.5,0,22.6,3.8,22.6,8.4s-10.1,8.4-22.6,8.4s-22.6-3.8-22.6-8.4S184.5,352.9,197,352.9 M197,351.5
		c-11.6,0-24,3.4-24,9.8s12.4,9.8,24,9.8s24-3.4,24-9.8S208.6,351.5,197,351.5z"></path><path class="st2" d="M208.3,371.7c-0.2,0-0.3-0.1-0.5-0.2l-19.9-18.1c-0.3-0.2-0.4-0.6-0.2-1c0.2-0.3,0.6-0.4,1-0.2
		c0.1,0,0.1,0.1,0.2,0.2l19.9,18.1c0.3,0.3,0.3,0.7,0.1,1c0,0,0,0,0,0C208.6,371.7,208.4,371.7,208.3,371.7z"></path><path class="st2" d="M127.6,367.9v8.4c0,4.6,10.1,8.4,22.6,8.4s22.6-3.8,22.6-8.4v-8.4H127.6z"></path><path class="st2" d="M172.9,367.9v8.4c0,4.6-10.1,8.4-22.6,8.4s-22.6-3.8-22.6-8.4v-8.4H172.9 M172.9,366.5h-45.2
		c-0.8,0-1.4,0.6-1.4,1.4c0,0,0,0,0,0v8.4c0,6.4,12.4,9.8,24,9.8s24-3.5,24-9.8v-8.4C174.2,367.1,173.6,366.5,172.9,366.5
		L172.9,366.5z"></path><ellipse class="st0" cx="150.2" cy="367.9" rx="22.6" ry="8.4"></ellipse><path class="st2" d="M150.2,359.4c12.5,0,22.6,3.8,22.6,8.4s-10.1,8.4-22.6,8.4s-22.6-3.8-22.6-8.4S137.7,359.4,150.2,359.4
		 M150.2,358c-11.6,0-24,3.5-24,9.8s12.4,9.8,24,9.8s24-3.4,24-9.8S161.9,358,150.2,358z"></path><path class="st2" d="M158.8,376.4c-0.2,0-0.4-0.1-0.5-0.2l-15.8-16.2c-0.3-0.3-0.3-0.7,0-1s0.7-0.3,1,0l15.8,16.2
		c0.3,0.3,0.3,0.7,0,1C159.1,376.3,158.9,376.3,158.8,376.4L158.8,376.4z"></path><path class="st2" d="M151.8,347.1v8.4c0,4.6,10.1,8.4,22.6,8.4s22.6-3.8,22.6-8.4v-8.4H151.8z"></path><path class="st2" d="M197,347.1v8.4c0,4.6-10.1,8.4-22.6,8.4s-22.6-3.8-22.6-8.4v-8.4H197 M197,345.7h-45.2c-0.8,0-1.4,0.6-1.4,1.4
		v8.4c0,6.4,12.4,9.8,24,9.8s24-3.4,24-9.8v-8.4C198.4,346.3,197.7,345.7,197,345.7L197,345.7z"></path><ellipse class="st0" cx="174.4" cy="347.1" rx="22.6" ry="8.4"></ellipse><path class="st2" d="M174.4,338.7c12.5,0,22.6,3.8,22.6,8.4s-10.1,8.4-22.6,8.4s-22.6-3.8-22.6-8.4S161.9,338.7,174.4,338.7
		 M174.4,337.3c-11.6,0-24,3.4-24,9.8s12.4,9.8,24,9.8s24-3.5,24-9.8S186,337.3,174.4,337.3z"></path><path class="st2" d="M158.6,355.5c-0.2,0-0.5-0.1-0.6-0.4c-0.2-0.3-0.1-0.8,0.2-0.9c0,0,0,0,0,0l27.2-15.6c0.3-0.2,0.8-0.1,1,0.2
		c0,0,0,0,0,0.1c0.2,0.3,0.1,0.8-0.2,0.9c0,0,0,0,0,0L159,355.4C158.9,355.5,158.8,355.5,158.6,355.5z"></path></g></svg>