<svg transform="scale(1)" version="1.1" id="Layer_1" xmlns="http://www.w3.org/2000/svg" xmlns:xlink="http://www.w3.org/1999/xlink" x="0px" y="0px" viewBox="0 0 500 500" xml:space="preserve" class="show_show__wrapper__graphic__5Waiy "><title>React</title><style type="text/css">
	.st0{fill:#FFFFFF;}
	.st1{fill:#231F20;}
	.st2{fill:#D1D3D4;}
	.st3{fill:#68E1FD;}
</style><g id="Screen_2"><path class="st0" d="M247.1,317.2l145.3,0.2c4.3-0.2,7.8-3.3,8.7-7.5l27-142.7c0.8-4.1-1.8-7.5-5.8-7.5L277,159.5
		c-4.3,0.2-7.8,3.3-8.7,7.5l-27,142.7C240.5,313.8,243.1,317.2,247.1,317.2z"></path><path class="st1" d="M392.5,318.1L392.5,318.1l-145.3-0.2l0,0c-2,0-3.9-0.8-5.2-2.3c-1.3-1.7-1.8-3.9-1.4-6l27-142.7
		c0.8-4.4,5-8,9.4-8l0,0l145.3,0.2c2,0,3.9,0.8,5.1,2.3c1.3,1.7,1.8,3.9,1.4,6l-27,142.6C401,314.5,396.8,318.1,392.5,318.1z
		 M247.1,316.5l145.3,0.2l0,0c3.9-0.2,7.2-3,8-6.9l27-142.7c0.4-1.7,0-3.5-1.1-4.8c-1-1.2-2.5-1.9-4.1-1.8L277,160.2l0,0
		c-3.9,0.2-7.2,3-8,6.9l-27,142.7c-0.4,1.7,0,3.5,1.1,4.8C244.1,315.9,245.6,316.5,247.1,316.5z"></path><path class="st1" d="M425.6,181.3L425.6,181.3l-159.8-0.2c-0.4,0-0.7-0.3-0.7-0.7c0-0.4,0.3-0.7,0.7-0.7l0,0l159.8,0.2
		c0.4,0,0.7,0.3,0.7,0.7C426.3,181,426,181.3,425.6,181.3z"></path><ellipse class="st2" transform="matrix(0.6859 -0.7277 0.7277 0.6859 5.8481 353.5146)" cx="412.5" cy="170" rx="4" ry="3.3"></ellipse><ellipse class="st2" transform="matrix(0.6859 -0.7277 0.7277 0.6859 1.8605 344.2477)" cx="399.7" cy="170" rx="4" ry="3.3"></ellipse><ellipse class="st2" transform="matrix(0.6859 -0.7277 0.7277 0.6859 -2.1286 334.9837)" cx="387" cy="170" rx="4" ry="3.3"></ellipse><polygon class="st0" points="350,192.3 336.3,264.8 394.5,264.8 408.3,192.4 	"></polygon><path class="st1" d="M350,192.3l58.2,0.1l-13.7,72.5l-58.2-0.1L350,192.3 M350,190.9c-0.7,0-1.3,0.5-1.4,1.1l-13.7,72.5
		c-0.1,0.4,0,0.8,0.3,1.1c0.3,0.3,0.7,0.5,1.1,0.5l58.2,0.1l0,0c0.7,0,1.3-0.5,1.4-1.1l13.7-72.5c0.1-0.8-0.3-1.5-1.1-1.6
		c-0.1,0-0.2,0-0.3,0L350,190.9z"></path><path class="st0" d="M391.4,211.3c-0.1,0.9,0,1.9,0.3,2.8c0.3,0.5,0.6,1,1,1.5c1.2,1.8,1.8,3.8,1.9,5.9c0.1,1.4,0,2.9-0.6,4.2
		c-0.4,1-1.1,1.8-1.5,2.8c-0.5,1.2-0.5,2.4-0.2,3.6c0.3,1.1,1,2.4,0.4,3.4c-0.5,0.7-1.3,1-2.1,0.9c-0.8-0.1-1.6-0.3-2.3-0.6
		c-4.3-1.2-9.6-0.6-14.1-1l-16.7-1.2c-2.3-0.2-5.1-0.7-5.7-2.9c-0.5-1.9,1.3-5,2-6.7c1.1-3,2.6-5.9,4.4-8.6c1-1.2,1.9-2.6,2.6-4
		c0.4-0.9,0.5-1.9,0.8-2.9c1-2.8,2.6-5.3,4.8-7.3c1.4-1.5,3.1-2.7,4.9-3.7c6.1-3.2,16.2-1,19,5.7
		C391.2,205.8,391.6,208.6,391.4,211.3z"></path><path class="st1" d="M390.8,237.2h-0.2c-0.7-0.1-1.4-0.2-2-0.4l-0.5-0.2c-3-0.7-6.2-1-9.3-0.8c-1.7,0-3.2,0-4.7-0.1l-16.7-1.2
		c-3.7-0.3-5.8-1.4-6.4-3.5c-0.5-1.7,0.6-4.1,1.5-6c0.2-0.4,0.4-0.9,0.5-1.2c1.1-3.1,2.6-6,4.5-8.7c0.2-0.3,0.5-0.6,0.7-0.9
		c0.7-0.9,1.4-1.9,1.8-2.9c0.2-0.6,0.4-1.1,0.5-1.7c0.1-0.4,0.2-0.8,0.3-1.1c1-2.9,2.7-5.6,5-7.6c1.5-1.5,3.1-2.8,5-3.9
		c4-1.9,8.5-2,12.6-0.5c3.3,1.1,5.9,3.4,7.3,6.6c1,2.6,1.4,5.5,1.2,8.3l0,0v0.1c-0.1,0.8,0,1.6,0.2,2.3c0.2,0.4,0.4,0.7,0.6,1
		l0.2,0.4c1.2,1.9,1.9,4,2.1,6.3c0.2,1.6,0,3.1-0.6,4.6c-0.2,0.5-0.5,1-0.8,1.4c-0.3,0.4-0.5,0.9-0.7,1.4c-0.4,1-0.5,2.1-0.2,3.2
		c0.1,0.2,0.1,0.4,0.2,0.7c0.5,1,0.5,2.2,0.1,3.3C392.7,236.7,391.8,237.2,390.8,237.2z M377.6,196.9c-2.1,0-4.1,0.4-6,1.3
		c-1.7,1-3.3,2.2-4.7,3.6c-2.1,1.9-3.7,4.3-4.6,7c-0.1,0.4-0.2,0.7-0.3,1.1c-0.4,1.9-1.3,3.7-2.6,5.2l-0.7,0.9
		c-1.8,2.6-3.2,5.5-4.3,8.4c-0.1,0.4-0.4,0.8-0.6,1.3c-0.8,1.6-1.8,3.8-1.4,5c0.4,1.4,2.1,2.2,5.1,2.4l16.7,1.2
		c1.5,0.1,3,0.1,4.6,0.1c3.2-0.1,6.5,0.1,9.7,0.9l0.5,0.2c0.5,0.2,1.1,0.3,1.6,0.4c0.5,0.1,1.1-0.1,1.4-0.6c0.3-0.5,0-1.3-0.2-2.1
		c-0.1-0.2-0.2-0.5-0.2-0.7c-0.4-1.4-0.3-2.8,0.2-4.1c0.2-0.5,0.5-1.1,0.8-1.6c0.3-0.4,0.5-0.8,0.7-1.3c0.5-1.2,0.7-2.6,0.5-3.9
		c-0.1-2-0.7-3.9-1.8-5.6l-0.2-0.3c-0.3-0.4-0.6-0.8-0.8-1.3c-0.3-0.9-0.4-1.9-0.3-2.9l0.7-0.1h-0.7c0.2-2.6-0.2-5.3-1.1-7.7
		c-1.3-2.7-3.6-4.8-6.5-5.7C381.4,197.2,379.5,196.9,377.6,196.9z"></path><path class="st3" d="M340.3,243.8l-4,20.9l58.2,0.1l4-20.9c-4.8-5.8-12.9-7.7-20-8.4c-2.7-0.2-5.3-0.3-7.5-0.3h-0.5
		c-2,0-4.4,0.1-7,0.3h-0.1C356,236.1,347.2,238.1,340.3,243.8z"></path><path class="st1" d="M362.4,239.5L362.4,239.5l1.8,19.6l0.5,5.7h1.3l2.7-5.7l9.2-19.5c0,0,0,0,0-0.1l0,0
		C374.5,238.4,366.4,238.4,362.4,239.5z"></path><path class="st0" d="M378,239.5c-1.9,2.7-5.1,4.3-8.4,4.3c-5.6,0-7.1-4.4-7.1-4.4l4-17h14L378,239.5z"></path><path class="st1" d="M369.6,244.6L369.6,244.6c-3.4,0.2-6.5-1.8-7.8-4.8c0-0.1,0-0.3,0-0.4l4-17.1c0.1-0.3,0.4-0.6,0.7-0.6l0,0h14
		c0.2,0,0.4,0.1,0.5,0.2c0.1,0.2,0.2,0.4,0.2,0.6l-2.5,17.1c0,0.1,0,0.2-0.1,0.3C376.6,242.9,373.2,244.6,369.6,244.6z M363.2,239.5
		c0.3,0.8,1.9,3.7,6.4,3.7l0,0c3,0,5.9-1.4,7.7-3.9l2.3-16.1H367L363.2,239.5z M378,239.5L378,239.5z"></path><path class="st1" d="M379,229.8c-1.4,1.6-3.1,2.9-5,3.8c-3.1,1.6-7.6,3.4-10.8,2.8l1.9-7.2c2.5,0.3,5,0.3,7.4,0.1
		c2.3-0.1,4.5-0.5,6.6-1.3C379.6,227.8,379.6,229.1,379,229.8z"></path><path class="st1" d="M364.5,237.2c-0.5,0-0.9,0-1.4-0.1c-0.2,0-0.4-0.1-0.5-0.3c-0.1-0.2-0.1-0.4-0.1-0.6l1.9-7.2
		c0.1-0.3,0.4-0.6,0.8-0.5c2.4,0.3,4.8,0.3,7.2,0.1c2.2-0.1,4.4-0.5,6.5-1.2c0.4-0.2,0.8,0,1,0.3c0.4,0.9,0.2,1.9-0.4,2.6
		c-1.4,1.7-3.2,3-5.2,4C372.1,235.4,368,237.2,364.5,237.2z M364.1,235.8c3.4,0.1,7.8-1.9,9.6-2.8c1.8-0.9,3.4-2.1,4.7-3.6l0,0
		c0.1-0.1,0.2-0.3,0.2-0.4c-2,0.6-4,0.9-6.1,1c-2.3,0.3-4.7,0.3-7,0L364.1,235.8z"></path><path class="st1" d="M385.1,265.5c-0.1,0-0.1,0-0.2,0c-0.4-0.1-0.6-0.5-0.5-0.9L390,247c0.1-0.4,0.5-0.6,0.9-0.5s0.6,0.5,0.5,0.9
		l-5.6,17.6C385.7,265.3,385.4,265.5,385.1,265.5z"></path><path class="st1" d="M345.7,265.5L345.7,265.5c-0.4,0-0.7-0.4-0.7-0.8c0,0,0,0,0,0l1.1-17.6c0.1-0.4,0.4-0.7,0.8-0.6
		c0.3,0.1,0.6,0.3,0.6,0.7l-1.1,17.6C346.4,265.2,346.1,265.5,345.7,265.5z"></path><path class="st0" d="M365.4,218.5c0.3-4-4.3-5-5-0.3c-0.3,1.5-0.1,3,0.4,4.4c0.5,1.1,1.8,1.6,2.8,1.1c0.1,0,0.1-0.1,0.2-0.1"></path><path class="st1" d="M362.8,224.7c-0.3,0-0.5,0-0.8-0.1c-0.8-0.3-1.5-0.8-1.9-1.6c-0.6-1.5-0.8-3.2-0.5-4.9
		c0.4-2.8,2.1-3.9,3.6-3.8s3,1.7,2.8,4.2c0,0.4-0.4,0.7-0.8,0.7c-0.4,0-0.7-0.4-0.7-0.8c0.1-1.6-0.7-2.6-1.5-2.6s-1.7,0.5-2,2.5
		c-0.3,1.3-0.1,2.7,0.4,4c0.2,0.4,0.6,0.7,1,0.9c0.4,0.1,0.7,0,1-0.1c0.3-0.2,0.8-0.1,1,0.3c0.2,0.3,0.1,0.8-0.3,1l0,0
		C363.8,224.6,363.3,224.7,362.8,224.7z"></path><path class="st0" d="M383.5,218.6c1.2-4,6.2-5,5.1-0.3c-0.3,1.6-1.1,3.1-2.1,4.4c-1,1.2-2.5,1.7-3.4,1"></path><path class="st1" d="M384,224.8c-0.5,0-1-0.1-1.4-0.4c-0.3-0.2-0.4-0.7-0.2-1c0,0,0,0,0,0c0.2-0.3,0.7-0.4,1-0.2
		c0.6,0.4,1.6,0,2.5-0.9c1-1.2,1.6-2.6,2-4.1c0.1-0.5,0.4-2-0.4-2.2s-2.6,0.8-3.3,2.9c-0.1,0.4-0.5,0.6-0.9,0.5
		c-0.4-0.1-0.6-0.5-0.5-0.9l0,0c0.9-2.8,3.3-4.3,5-3.8c0.5,0.1,2.2,0.9,1.5,4c-0.4,1.7-1.2,3.3-2.3,4.7
		C386.3,224.1,385.2,224.7,384,224.8z"></path><path class="st0" d="M365.5,209.8l-2.2,11.6c-1,5.6,2.5,10.1,7.9,10.1h1.1c5.4,0,10.6-4.5,11.7-10.1c0.5-2.8,2.5-7.2,0.4-9.3
		c-3.3-3.4-6.4-5.5-8.2-10.1C372,202.8,365.5,204,365.5,209.8z"></path><path class="st1" d="M372.3,232.2h-1.2c-2.6,0.1-5.1-1.1-6.8-3.1c-1.8-2.2-2.4-5.1-1.8-7.9l2.2-11.5c0-6.1,6.5-7.4,10.8-8.3
		l0.5-0.1c0.3-0.1,0.7,0.1,0.8,0.4c1.3,3.4,3.5,5.4,5.9,7.8c0.7,0.7,1.5,1.4,2.2,2.1c1.9,1.9,1,5.2,0.3,7.9c-0.2,0.7-0.4,1.4-0.5,2
		C383.6,227.4,378,232.2,372.3,232.2z M375.8,202.8c-4.1,0.8-9.5,2-9.5,7c0,0,0,0.1,0,0.1l-2.2,11.6c-0.5,2.3,0,4.8,1.5,6.7
		c1.4,1.7,3.5,2.6,5.7,2.5h1.1c5.1,0,10-4.2,11-9.5c0.1-0.6,0.3-1.4,0.5-2.1c0.6-2.4,1.4-5.1,0.1-6.5c-0.7-0.7-1.4-1.4-2.1-2.1
		C379.4,208.3,377.2,206.2,375.8,202.8L375.8,202.8z M365.5,209.8L365.5,209.8z"></path><path class="st1" d="M373.3,223c-0.5,0-1,0-1.6-0.1c-0.4-0.1-0.7-0.4-0.6-0.8s0.4-0.7,0.8-0.6c0.8,0.1,1.7,0.1,2.5,0
		c0.3-0.7,0.2-3.7-0.4-6.7c0-0.4,0.3-0.8,0.7-0.8c0.3,0,0.7,0.2,0.8,0.5c0.3,1.5,1.1,6.5,0.1,7.9c-0.2,0.3-0.5,0.5-0.8,0.5
		C374.3,223,373.8,223,373.3,223z"></path><path class="st2" d="M334.7,207.4L334.7,207.4l-59.8-0.1c-0.4,0-0.8-0.3-0.8-0.8c0-0.4,0.3-0.8,0.8-0.8c0,0,0,0,0,0l0,0l59.8,0.1
		c0.4,0,0.7,0.4,0.7,0.9C335.4,207,335.1,207.3,334.7,207.4L334.7,207.4z"></path><path class="st2" d="M332.7,218L332.7,218l-59.8-0.1c-0.4,0-0.8-0.3-0.8-0.8c0-0.4,0.3-0.8,0.8-0.8c0,0,0,0,0,0l0,0l59.8,0.1
		c0.4,0,0.8,0.4,0.8,0.8C333.5,217.7,333.2,218,332.7,218L332.7,218z"></path><path class="st2" d="M330.7,228.7L330.7,228.7l-59.8-0.1c-0.4,0-0.8-0.3-0.8-0.8c0-0.4,0.3-0.8,0.8-0.8c0,0,0,0,0,0l0,0l59.8,0.1
		c0.4,0,0.7,0.4,0.7,0.9C331.4,228.4,331.1,228.6,330.7,228.7L330.7,228.7z"></path><path class="st2" d="M328.7,239.4L328.7,239.4l-59.8-0.1c-0.4,0-0.8-0.3-0.8-0.8c0-0.4,0.3-0.8,0.8-0.8c0,0,0,0,0,0l0,0l59.8,0.1
		c0.4,0,0.8,0.4,0.8,0.8C329.5,239,329.1,239.4,328.7,239.4z"></path><path class="st2" d="M326.7,250L326.7,250h-42.2c-0.4,0-0.8-0.3-0.8-0.8c0-0.4,0.3-0.8,0.8-0.8c0,0,0,0,0,0l0,0l42.2,0.1
		c0.4,0,0.8,0.3,0.8,0.7c0,0,0,0,0,0C327.4,249.7,327.1,250,326.7,250z"></path><path class="st2" d="M387.1,307.4L387.1,307.4l-130.6-0.2c-0.2,0-0.5-0.1-0.6-0.3c-0.1-0.2-0.2-0.4-0.2-0.6l5.9-31.3
		c0.1-0.4,0.4-0.6,0.8-0.6l0,0l130.6,0.1c0.2,0,0.5,0.1,0.6,0.3c0.1,0.2,0.2,0.4,0.2,0.6l-5.9,31.3
		C387.8,307.1,387.5,307.4,387.1,307.4z M257.4,305.7l129,0.1l5.6-29.8l-129-0.1L257.4,305.7z"></path><path class="st2" d="M390.7,285.9L390.7,285.9l-130.1-0.2c-0.4,0-0.8-0.3-0.8-0.8c0,0,0,0,0,0c0-0.4,0.3-0.8,0.8-0.8l0,0l130.1,0.1
		c0.4,0,0.8,0.4,0.8,0.8C391.5,285.5,391.1,285.9,390.7,285.9z"></path><path class="st2" d="M351.8,307.3h-0.1c-0.4-0.1-0.7-0.5-0.6-0.9l5.9-31.3c0.1-0.4,0.5-0.7,0.9-0.6c0.4,0.1,0.6,0.5,0.6,0.9
		l-5.9,31.3C352.5,307.1,352.1,307.3,351.8,307.3z"></path><path class="st2" d="M285.9,307.3h-0.1c-0.4-0.1-0.7-0.5-0.6-0.9l5.9-31.4c0.1-0.4,0.5-0.7,0.9-0.6c0.4,0.1,0.6,0.5,0.6,0.9
		l-5.9,31.3C286.6,307,286.3,307.3,285.9,307.3z"></path></g><g id="Screen_1"><path class="st0" d="M176.1,260.4l145.3,0.2c4.3-0.2,7.8-3.3,8.7-7.5l27-142.7c0.8-4.1-1.8-7.5-5.8-7.5L206,102.7
		c-4.3,0.2-7.8,3.3-8.7,7.5l-27,142.7C169.5,257,172.1,260.4,176.1,260.4z"></path><path class="st1" d="M321.4,261.2L321.4,261.2L176.1,261c-2,0-3.9-0.8-5.1-2.3c-1.3-1.7-1.9-3.9-1.4-6l27-142.7
		c0.9-4.5,4.8-7.8,9.4-8l0,0l145.3,0.2c2,0,3.9,0.8,5.2,2.3c1.3,1.7,1.8,3.9,1.4,6l-27,142.7C329.8,257.7,326,261,321.4,261.2z
		 M176.1,259.6l145.3,0.2l0,0c3.9-0.2,7.2-3,8-6.9l27-142.7c0.4-1.7,0-3.5-1.1-4.8c-1-1.2-2.5-1.9-4.1-1.8l-145.3-0.2l0,0
		c-3.9,0.2-7.2,3-8,6.9l-27,142.7c-0.4,1.7,0,3.5,1.1,4.8C173,259,174.5,259.7,176.1,259.6L176.1,259.6z"></path><path class="st1" d="M354.6,124.4L354.6,124.4l-159.8-0.2c-0.4,0-0.7-0.3-0.7-0.7c0-0.4,0.3-0.7,0.7-0.7l0,0l159.8,0.2
		c0.4,0,0.7,0.3,0.7,0.7C355.3,124.1,355,124.4,354.6,124.4z"></path><ellipse class="st2" transform="matrix(0.6859 -0.7277 0.7277 0.6859 24.8952 283.9728)" cx="341.4" cy="113.1" rx="4" ry="3.3"></ellipse><ellipse class="st2" transform="matrix(0.6859 -0.7277 0.7277 0.6859 20.9209 274.7084)" cx="328.7" cy="113.1" rx="4" ry="3.3"></ellipse><ellipse class="st2" transform="matrix(0.6859 -0.7277 0.7277 0.6859 16.9332 265.4415)" cx="316" cy="113.1" rx="4" ry="3.3"></ellipse><polygon class="st0" points="279,135.4 265.3,207.9 323.5,208 337.2,135.5 	"></polygon><path class="st1" d="M279,135.4l58.2,0.1L323.5,208l-58.2-0.1L279,135.4 M279,134.1c-0.7,0-1.3,0.5-1.4,1.1l-13.7,72.5
		c-0.1,0.8,0.4,1.5,1.1,1.6c0.1,0,0.2,0,0.2,0l58.2,0.1l0,0c0.7,0,1.2-0.5,1.4-1.1l13.7-72.5c0.1-0.8-0.4-1.5-1.1-1.6
		c-0.1,0-0.2,0-0.2,0L279,134.1z"></path><path class="st3" d="M269.2,187l-4,20.9l58.2,0.1l4-20.9c-4.8-5.8-12.9-7.7-20-8.4c-2.7-0.3-5.3-0.3-7.5-0.3h-0.5
		c-2,0-4.4,0.1-7,0.3h-0.1C285,179.3,276.2,181.3,269.2,187z"></path><path class="st1" d="M291.4,182.7L291.4,182.7l1.8,19.6l0.5,5.7h1.3l2.7-5.7l9.2-19.5v-0.1l0,0
		C303.4,181.5,295.3,181.5,291.4,182.7z"></path><path class="st0" d="M306.9,182.7c-1.9,2.7-5.1,4.3-8.4,4.3c-5.6,0-7.1-4.4-7.1-4.4l4-17.1h14L306.9,182.7z"></path><path class="st1" d="M298.5,187.8L298.5,187.8c-3.4,0.2-6.5-1.8-7.8-4.9c0-0.1,0-0.3,0-0.4l4-17.1c0.1-0.3,0.4-0.6,0.7-0.6h14
		c0.2,0,0.4,0.1,0.5,0.3c0.1,0.2,0.2,0.4,0.2,0.6l-2.5,17.1c0,0.1-0.1,0.2-0.1,0.3C305.5,186,302.1,187.8,298.5,187.8z M292.2,182.6
		c0.3,0.8,1.9,3.7,6.4,3.7l0,0c3,0,5.9-1.4,7.7-3.9l2.3-16.1H296L292.2,182.6z M306.9,182.7L306.9,182.7z"></path><path class="st1" d="M308,172.9c-1.4,1.6-3.1,2.9-5,3.8c-3.1,1.6-7.6,3.4-10.8,2.8l1.9-7.2c2.5,0.3,5,0.3,7.4,0.1
		c2.3-0.1,4.5-0.5,6.7-1.3C308.6,171,308.6,172.2,308,172.9z"></path><path class="st1" d="M293.5,180.4c-0.5,0-0.9,0-1.4-0.1c-0.2,0-0.4-0.1-0.5-0.3c-0.1-0.2-0.1-0.4-0.1-0.6l1.9-7.2
		c0.1-0.3,0.4-0.6,0.8-0.5c2.4,0.3,4.8,0.3,7.2,0.1c2.2-0.1,4.4-0.5,6.5-1.2c0.4-0.2,0.8,0,1,0.3c0.4,0.9,0.2,1.9-0.4,2.6
		c-1.4,1.7-3.2,3-5.2,4C301.1,178.6,297,180.4,293.5,180.4z M293.1,179c3.4,0.1,7.8-1.9,9.6-2.8c1.8-0.9,3.4-2.1,4.7-3.6l0,0
		c0.1-0.1,0.2-0.3,0.2-0.4c-2,0.6-4,0.9-6,1c-2.3,0.3-4.7,0.3-7,0L293.1,179z"></path><path class="st1" d="M314.1,208.7c-0.1,0-0.1,0-0.2,0c-0.4-0.1-0.6-0.5-0.5-0.9c0,0,0,0,0,0l5.6-17.6c0.1-0.4,0.5-0.6,0.9-0.5
		c0.4,0.1,0.6,0.5,0.5,0.9l-5.6,17.6C314.7,208.5,314.4,208.7,314.1,208.7z"></path><path class="st1" d="M274.7,208.7L274.7,208.7c-0.4,0-0.7-0.4-0.7-0.8l1-17.6c0-0.4,0.4-0.7,0.8-0.7c0.4,0,0.7,0.4,0.7,0.8l0,0
		l-1,17.6C275.4,208.4,275.1,208.7,274.7,208.7z"></path><path class="st0" d="M294.3,161.7c0.3-4-4.3-5-5-0.3c-0.3,1.5-0.1,3,0.5,4.4c0.5,1.1,1.7,1.6,2.8,1.1c0.1,0,0.1-0.1,0.2-0.1"></path><path class="st1" d="M291.8,167.9c-0.3,0-0.5,0-0.8-0.1c-0.8-0.3-1.5-0.8-1.9-1.6c-0.6-1.5-0.8-3.2-0.5-4.9
		c0.4-2.8,2.1-3.9,3.6-3.8s3,1.7,2.8,4.2c0,0.4-0.4,0.7-0.8,0.7c-0.4,0-0.7-0.4-0.7-0.8c0.1-1.6-0.7-2.6-1.5-2.6s-1.7,0.5-2,2.5
		c-0.3,1.3-0.1,2.7,0.4,4c0.2,0.4,0.6,0.8,1,0.9c0.4,0.1,0.7,0,1-0.1c0.4-0.2,0.8-0.1,1,0.3c0.2,0.4,0.1,0.8-0.3,1c0,0,0,0,0,0
		C292.7,167.8,292.3,167.9,291.8,167.9z"></path><path class="st0" d="M312.4,161.7c1.2-4,6.2-5,5.1-0.3c-0.3,1.6-1.1,3.1-2.1,4.4c-1,1.2-2.5,1.7-3.4,1"></path><path class="st1" d="M312.9,167.9c-0.5,0-1-0.1-1.4-0.4c-0.3-0.2-0.4-0.7-0.2-1c0.2-0.3,0.7-0.4,1-0.2c0.6,0.4,1.6,0,2.5-0.9
		c1-1.2,1.7-2.6,2-4.1c0.1-0.5,0.4-2-0.4-2.2s-2.6,0.8-3.3,2.9c-0.1,0.4-0.5,0.6-0.9,0.5c-0.4-0.1-0.6-0.5-0.5-0.9c0,0,0,0,0,0
		c0.9-2.8,3.3-4.3,5-3.9c0.5,0.1,2.2,0.9,1.5,4c-0.4,1.7-1.1,3.4-2.3,4.7C315.2,167.3,314.1,167.9,312.9,167.9z"></path><path class="st0" d="M294.5,152.9l-2.2,11.6c-1.1,5.6,2.5,10.1,7.9,10.1h1.1c5.4,0,10.6-4.5,11.7-10.1l2.1-11
		c0,0,1.8-11.2-8.6-10.1S294.5,152.9,294.5,152.9z"></path><path class="st1" d="M301.3,175.3h-1.2c-2.6,0.1-5.1-1.1-6.8-3.1c-1.8-2.2-2.4-5.1-1.8-7.9l2.2-11.6c0-0.1,1.8-8.9,12.6-10.1
		c3.2-0.4,5.6,0.4,7.3,2.1c3,3.2,2.2,8.6,2.1,8.8l-2.1,11C312.6,170.5,307,175.3,301.3,175.3z M295.2,153l-2.2,11.6
		c-0.5,2.3,0,4.8,1.5,6.7c1.4,1.7,3.5,2.6,5.7,2.5h1.2c5.1,0,10-4.2,11-9.5l2.1-11c0,0,0.8-4.9-1.8-7.6c-1.3-1.4-3.4-1.9-6-1.6
		C296.8,145.2,295.2,152.7,295.2,153z"></path><path class="st1" d="M302.3,166.2c-0.5,0-1,0-1.6-0.1c-0.4-0.1-0.7-0.4-0.6-0.8s0.4-0.7,0.8-0.6c0.8,0.1,1.7,0.1,2.5,0
		c0.3-0.7,0.2-3.7-0.4-6.7c-0.1-0.4,0.2-0.8,0.6-0.8c0,0,0,0,0,0c0.4-0.1,0.8,0.2,0.8,0.6c0,0,0,0,0,0c0.3,1.5,1.1,6.5,0.1,7.9
		c-0.2,0.3-0.5,0.5-0.8,0.5C303.3,166.1,302.8,166.2,302.3,166.2z"></path><path class="st2" d="M263.7,150.5L263.7,150.5l-59.8-0.1c-0.4,0-0.8-0.4-0.8-0.8c0-0.4,0.3-0.8,0.8-0.8l0,0l59.8,0.1
		c0.4,0,0.8,0.4,0.8,0.8C264.5,150.2,264.1,150.5,263.7,150.5z"></path><path class="st2" d="M261.7,161.2L261.7,161.2l-59.8-0.1c-0.4,0-0.8-0.3-0.8-0.8c0-0.4,0.3-0.8,0.8-0.8c0,0,0,0,0,0l0,0l59.8,0.1
		c0.4,0,0.8,0.3,0.9,0.7c0,0.4-0.3,0.8-0.7,0.9C261.8,161.2,261.7,161.2,261.7,161.2z"></path><path class="st2" d="M259.7,171.9L259.7,171.9l-59.8-0.1c-0.4,0-0.8-0.4-0.8-0.8c0-0.4,0.3-0.8,0.8-0.8l0,0l59.8,0.1
		c0.4,0,0.8,0.3,0.8,0.8C260.4,171.5,260.1,171.8,259.7,171.9C259.7,171.9,259.7,171.9,259.7,171.9z"></path><path class="st2" d="M257.6,182.5L257.6,182.5l-59.8-0.1c-0.4,0-0.8-0.3-0.8-0.8c0-0.4,0.3-0.8,0.8-0.8c0,0,0,0,0,0l0,0l59.8,0.1
		c0.4,0,0.8,0.3,0.8,0.8c0,0,0,0,0,0C258.4,182.2,258.1,182.5,257.6,182.5z"></path><path class="st2" d="M255.6,193.2L255.6,193.2l-42.2-0.1c-0.4,0-0.8-0.4-0.8-0.8c0-0.4,0.3-0.8,0.8-0.8l0,0l42.2,0.1
		c0.4,0,0.8,0.3,0.8,0.8C256.4,192.8,256.1,193.2,255.6,193.2C255.6,193.2,255.6,193.2,255.6,193.2z"></path><path class="st2" d="M316.1,250.5L316.1,250.5l-130.6-0.1c-0.2,0-0.5-0.1-0.6-0.3c-0.2-0.2-0.2-0.4-0.2-0.6l5.9-31.3
		c0.1-0.4,0.4-0.6,0.8-0.6l0,0l130.6,0.1c0.2,0,0.5,0.1,0.6,0.3c0.2,0.2,0.2,0.4,0.2,0.6l-5.9,31.3
		C316.8,250.3,316.5,250.5,316.1,250.5z M186.4,248.8l129,0.1l5.6-29.8l-129-0.1L186.4,248.8z"></path><path class="st2" d="M319.7,229L319.7,229l-130.1-0.1c-0.4,0-0.8-0.3-0.8-0.8c0,0,0,0,0,0c0-0.4,0.3-0.8,0.8-0.8l0,0l130.1,0.2
		c0.4,0,0.8,0.3,0.8,0.8C320.5,228.7,320.1,229,319.7,229C319.7,229,319.7,229,319.7,229z"></path><path class="st2" d="M280.7,250.5h-0.1c-0.4-0.1-0.7-0.5-0.6-0.9l5.9-31.3c0.1-0.4,0.4-0.7,0.9-0.7c0.4,0.1,0.7,0.4,0.7,0.9
		c0,0,0,0.1,0,0.1l-5.9,31.3C281.4,250.2,281.1,250.5,280.7,250.5z"></path><path class="st2" d="M214.9,250.4h-0.1c-0.4-0.1-0.7-0.5-0.6-0.9l5.9-31.3c0.1-0.4,0.4-0.7,0.9-0.7c0.4,0.1,0.7,0.4,0.7,0.9
		c0,0,0,0.1,0,0.1l-5.9,31.3C215.5,250.1,215.2,250.4,214.9,250.4z"></path></g><g id="Character"><path class="st1" d="M78.5,397.3l-2.4-43.6l108-19.8c0.1,1.1,4.8,37.3,8.1,63.4L78.5,397.3z"></path><path class="st1" d="M192.2,398H78.5c-0.4,0-0.7-0.3-0.7-0.7l-2.4-43.6c0-0.4,0.2-0.7,0.6-0.7l108-19.8c0.2,0,0.4,0,0.5,0.1
		c0.2,0.1,0.3,0.3,0.3,0.5c0.1,1.2,5.7,44.7,8.1,63.4c0,0.2,0,0.4-0.2,0.5C192.6,397.9,192.4,398,192.2,398z M79.1,396.6h112.3
		c-2.8-21.6-7.2-56.3-7.9-61.9L76.8,354.3L79.1,396.6z"></path><path class="st0" d="M249.9,265.7l19.1-16.6c0,0,6.9-17.4,9.8-20.7s23.8-13.6,24-11.3s-4.8,5.4-6.2,6.6c-2.1,1.7-4.3,3.3-6.5,5
		c4.4,1.8,8.8,6.9,10.7,11.1c1.7,3.8,1.6,8.5-0.9,11.9c-0.7,1-1.6,1.7-2.7,2c-1.1,0.3-2.4-0.1-3-1.1l-0.3,0.4
		c-2.2,3-4.9,5.7-7.9,7.9c-2.5,1.6-5.5,1.8-7.5,3.9c-2.9,3-5.3,7-7.8,10.3l-14,18.6L249.9,265.7z"></path><path class="st1" d="M256.5,294.2h-0.1c-0.3-0.1-0.5-0.3-0.5-0.5l-6.7-27.8c-0.1-0.3,0-0.5,0.2-0.7l18.9-16.5
		c0.7-1.9,7.1-17.5,9.8-20.8s21.6-12.7,24.5-11.8c0.4,0.1,0.7,0.5,0.8,0.9c0.2,2-2.6,4.3-5.5,6.4c-0.4,0.3-0.7,0.6-1,0.7
		c-1.5,1.2-3,2.4-4.5,3.5l-1,0.8c4.3,2.3,8.3,7.1,10,11c1.9,4.3,1.6,9.2-1,12.6c-0.8,1.1-1.9,1.9-3.1,2.3c-1.1,0.3-2.3,0-3.2-0.7
		c-2.2,3-4.9,5.6-7.8,7.8c-1.1,0.7-2.3,1.2-3.5,1.6c-1.4,0.4-2.8,1.1-3.9,2.1c-1.9,2.1-3.7,4.3-5.2,6.7c-0.8,1.2-1.6,2.4-2.5,3.5
		l-14.1,18.6C257,294.1,256.8,294.2,256.5,294.2z M250.6,266l6.2,25.9l13.2-17.4c0.8-1.1,1.6-2.2,2.4-3.4c1.6-2.5,3.4-4.8,5.4-6.9
		c1.3-1.1,2.8-2,4.4-2.5c1.1-0.4,2.2-0.9,3.2-1.5c3-2.2,5.6-4.8,7.8-7.8l0.3-0.4c0.1-0.2,0.4-0.3,0.6-0.3c0.2,0,0.4,0.2,0.5,0.4
		c0.5,0.7,1.4,1,2.2,0.8c1-0.3,1.8-0.9,2.4-1.8c2.2-2.9,2.5-7.3,0.8-11.2s-6-9-10.4-10.8c-0.2-0.1-0.4-0.3-0.4-0.6
		c0-0.3,0.1-0.5,0.3-0.6l2-1.5c1.5-1.1,3-2.3,4.5-3.5l1-0.8c1.4-1,4.6-3.4,4.9-4.9c-2.8,0-20,8.1-22.8,11.4s-9.6,20.4-9.6,20.5
		c0,0.1-0.1,0.2-0.2,0.3L250.6,266z"></path><path class="st3" d="M71.7,381.1c0,0,1.4-117,15.3-140.4s52.2-30.1,71.2-17.2s33.9,147.8,33.9,147.8S132.4,383.7,71.7,381.1z"></path><path class="st3" d="M158.3,223.5c0,0,17.9,2.7,27.7,17.9s20.8,36,20.8,36l51.4-26.8l24,22.9c0,0-43.1,46.7-64,59.3
		c-19.7,11.9-35.1-4.6-45.9-15.2c-4.5-4.5-11.6-15.5-11.6-15.5L158.3,223.5z"></path><path class="st1" d="M161.1,176.7c-4.2-0.2-7.6-3.8-7.4-8s3.8-7.6,8-7.4s7.6,3.8,7.4,8c-0.2,4-3.4,7.2-7.4,7.4H161.1z M161.1,163
		h-0.5c-3.4,0.1-6,3-5.9,6.4c0.1,3.4,3,6,6.4,5.9c3.4-0.1,6-3,5.9-6.4C166.9,165.7,164.3,163.1,161.1,163z"></path><path class="st0" d="M158.3,174.8c0,0,9,12.5,7.4,15.2s-7.6,1.2-7.6,1.2"></path><path class="st1" d="M161.5,192.3c-1.2,0-2.4-0.2-3.6-0.4c-0.4-0.1-0.6-0.5-0.5-0.9c0.1-0.4,0.5-0.6,0.9-0.5c1.5,0.4,5.6,1,6.8-0.9
		c0.9-1.4-3.1-8.6-7.3-14.4c-0.2-0.3-0.2-0.7,0.1-1c0,0,0,0,0,0c0.3-0.2,0.7-0.2,1,0.1c0,0,0,0,0,0c1.6,2.1,9.2,13,7.4,16
		C165.3,191.9,163.3,192.3,161.5,192.3z"></path><path class="st0" d="M155.8,157.9c5.6,4.2,4.4,13.6,4.6,19.6c0.3,8.5,0.4,17,0.3,25.6c-0.1,5.4-14,6.1-16.6,4.6l4,13.2l-30.8-2
		l0.5-17.7c0,0-3.9-24.3,1.1-35.5s16.7-11.2,16.7-11.2S150.3,153.8,155.8,157.9z"></path><path class="st1" d="M148.1,221.6L148.1,221.6l-30.8-2c-0.4,0-0.7-0.3-0.7-0.7l0.5-17.7c-0.2-0.9-3.9-24.5,1.2-35.8
		c5.1-11.5,17.1-11.6,17.3-11.6l0,0c0.6,0,15.1-0.7,20.7,3.5l0,0c4.9,3.7,4.9,11,4.9,16.9c0,1.2,0,2.3,0,3.3
		c0.3,8.5,0.4,17.1,0.3,25.6c0,1.1-0.5,2.6-2.8,3.9c-3.6,2-10.2,2.4-13.4,1.8l3.6,11.9c0.1,0.4-0.1,0.8-0.5,0.9
		C148.3,221.6,148.2,221.6,148.1,221.6L148.1,221.6z M118,218.2l29.1,1.9l-3.7-12.2c-0.1-0.3,0-0.6,0.2-0.8c0.2-0.2,0.5-0.2,0.8,0
		c1.6,1,9.5,0.9,13.5-1.3c1.4-0.8,2.1-1.7,2.1-2.7c0.1-8.5,0-17.1-0.3-25.6c0-1,0-2.2,0-3.4c0-5.6,0.1-12.5-4.3-15.7l0,0
		c-5.2-3.9-19.6-3.2-19.8-3.2l0,0c-7,0.2-13.2,4.4-16,10.7c-4.9,10.9-1.1,34.9-1,35.1L118,218.2z"></path><path class="st0" d="M111.7,223.5l2.1-9.5l37.7,0.6l2.8,8.4C154.3,222.9,135.5,233.8,111.7,223.5z"></path><path class="st1" d="M132.6,228.6c-7.3,0-14.5-1.5-21.2-4.5c-0.3-0.1-0.5-0.5-0.4-0.8l2.1-9.5c0.1-0.3,0.4-0.5,0.7-0.6l0,0
		l37.7,0.6c0.3,0,0.6,0.2,0.7,0.5l2.8,8.4c0.1,0.3,0,0.7-0.3,0.8C147.8,227,140.2,228.7,132.6,228.6z M112.5,223.1
		c13.1,5.7,28,5.5,41-0.5l-2.5-7.3l-36.6-0.6L112.5,223.1z"></path><path class="st1" d="M72.2,367.6c-0.4,0-0.7-0.3-0.7-0.6c-2.4-29.5,5.9-91.9,6.3-93.7c0.1-0.4,0.5-0.6,0.8-0.5c0,0,0,0,0,0
		c0.4,0.1,0.6,0.5,0.5,0.8c-0.4,1.8-8.7,63.9-6.3,93.2C72.9,367.3,72.6,367.6,72.2,367.6C72.2,367.6,72.2,367.6,72.2,367.6
		L72.2,367.6z"></path><path class="st0" d="M131,201.4c-1.8,11.1,0.1,20.4-10.9,27.9c-7.6,5.1-17.3,6.2-26.2,4.4c-5.6-1.1-11.4-3.6-14.4-8.5
		c-3.7-5.9-2.3-13.7,0.7-20s7.5-11.9,10-18.3c6.2-15.9,1.1-33.8,16.4-45c6-4.3,13-7.1,20.4-8c2.1-0.3,20.5,2.1,20.3,2.4
		c3.5-4,10.9-1.6,13.3,3.2c1.9,3.7,2,9.9,0.1,13.7c-0.3,0.5-5.1,6.6-5,4.8c-0.3,4.8-3.2,7.3-6.8,10.7s-7.8,5.9-11.7,8.8
		c-7.6,5.7-5,12.8-5.7,20.9C131.3,199.3,131.1,200.4,131,201.4z"></path><path class="st1" d="M101.8,235.1c-2.7,0-5.4-0.3-8.1-0.8c-4.9-1-11.5-3.3-14.9-8.8c-4.7-7.6-1.1-17,0.7-20.7
		c1.4-2.7,2.9-5.4,4.5-8c2.1-3.3,4-6.7,5.5-10.3c2.2-5.5,3-11.4,3.7-17c1.4-10.8,2.8-20.9,13-28.3c6.1-4.4,13.2-7.2,20.7-8.2
		c0.2,0,16.1,1.3,20.1,2.4c1.6-1.6,3.9-2.3,6.1-1.9c3.4,0.5,6.4,2.5,8,5.5c2,4,2.1,10.4,0.1,14.3c0,0-3.2,4.6-5,5.4
		c-0.6,4.4-3.3,6.9-6.5,9.9l-0.5,0.4c-2.4,2.2-5,4.2-7.8,6c-1.4,0.9-2.7,1.9-4,2.9c-5.4,4.1-5.4,8.9-5.3,14.4c0.1,2,0,4-0.2,6
		c-0.1,1.1-0.2,2.1-0.4,3.1c-0.4,2.4-0.6,4.6-0.8,6.9c-0.8,8.3-1.5,15.4-10.4,21.5C114.9,233.4,108.4,235.2,101.8,235.1z
		 M127.5,134.4c-0.1,0-0.3,0-0.4,0c-7.2,0.9-14.1,3.6-20,7.9c-9.7,7.1-11,16.9-12.4,27.4c-0.8,5.7-1.6,11.7-3.8,17.4
		c-1.6,3.7-3.4,7.2-5.6,10.5c-1.6,2.5-3.1,5.2-4.4,7.9c-1.7,3.5-5.1,12.4-0.8,19.4c3.2,5.1,9.3,7.2,14,8.2
		c9.5,1.9,18.9,0.3,25.7-4.3c8.4-5.7,9-12.5,9.8-20.4c0.2-2.2,0.4-4.6,0.8-7l0,0c0.2-1,0.3-2,0.4-3c0.2-1.9,0.2-3.9,0.2-5.9
		c-0.1-5.7-0.1-11.1,5.9-15.6c1.3-1,2.7-2,4-2.9c2.7-1.8,5.2-3.7,7.6-5.9l0.5-0.4c3.3-3,5.8-5.4,6.1-9.8l0,0c0-0.4,0.4-0.7,0.8-0.7
		c0.1,0,0.3,0.1,0.4,0.1c1.5-1.4,2.8-2.9,4-4.6c1.7-3.5,1.7-9.5-0.1-13.1c-1.4-2.6-4-4.4-7-4.7c-1.9-0.4-3.9,0.3-5.2,1.7
		c-0.2,0.3-0.6,0.3-0.9,0.1C140.4,135.6,133.9,134.9,127.5,134.4z"></path><path class="st0" d="M160.2,196.7c0,0-6.4,4.3-10.2-2.4"></path><path class="st1" d="M155.7,198.8c-0.5,0-1-0.1-1.6-0.2c-2.1-0.6-3.8-2-4.8-3.9c-0.2-0.3-0.1-0.8,0.2-1c0,0,0,0,0,0
		c0.3-0.2,0.8-0.1,1,0.2c0,0,0,0,0,0.1c0.8,1.6,2.2,2.8,3.9,3.2c1.9,0.3,3.8-0.1,5.4-1.1c0.3-0.2,0.8-0.1,1,0.2
		c0.2,0.3,0.1,0.7-0.2,0.9C159.2,198.2,157.5,198.8,155.7,198.8z"></path><path class="st1" d="M123.6,182.1h-0.1c-0.4-0.1-0.6-0.5-0.5-0.8c0,0,0,0,0,0c0.9-4.3,1.7-4.4,2.1-4.5c0.7-0.1,28.4-5.8,42.9-8.8
		c0.4-0.1,0.7,0.2,0.8,0.6c0.1,0.4-0.1,0.7-0.5,0.8c0,0,0,0,0,0c-1.7,0.4-40,8.2-42.8,8.8c-0.5,1.1-0.8,2.2-1,3.4
		C124.3,181.9,123.9,182.1,123.6,182.1z"></path><path class="st0" d="M142.2,180.9c-0.1-2.1-1.4-4-2.6-5.8c-0.9-1.4-2-2.7-3.2-3.7c-1.3-1.1-3-1.5-4.6-1.2c-1.4,0.4-2.6,1.4-3.2,2.8
		c-0.6,1.3-0.9,2.8-0.9,4.3c0,6.5,3.5,12.6,9.1,15.9l-0.5-0.5"></path><path class="st1" d="M136.6,193.8c-0.1,0-0.2,0-0.3-0.1c-5.9-3.4-9.5-9.7-9.5-16.5c0-1.6,0.3-3.1,1-4.6c0.7-1.5,2.1-2.7,3.7-3.1
		c1.9-0.4,3.8,0.1,5.2,1.3c1.3,1.1,2.5,2.4,3.4,3.9c1.2,1.6,2.6,3.7,2.8,6.1c0,0.4-0.3,0.7-0.7,0.7c-0.4,0-0.7-0.3-0.7-0.7
		c-0.1-2-1.4-3.9-2.5-5.4c-0.8-1.3-1.9-2.6-3.1-3.6c-1.1-0.9-2.6-1.3-4-1.1c-1.2,0.4-2.2,1.3-2.8,2.4c-0.6,1.3-0.8,2.6-0.8,4
		c0,5.9,2.9,11.4,7.8,14.7c0.2,0,0.4,0,0.6,0.2l0.5,0.5c0.2,0.3,0.3,0.6,0.1,0.9C137.1,193.8,136.9,193.9,136.6,193.8z"></path><ellipse class="st1" transform="matrix(0.9954 -9.584575e-02 9.584575e-02 0.9954 -15.4091 15.6793)" cx="155.5" cy="168.2" rx="1.2" ry="3.1"></ellipse><path class="st1" d="M190.8,332.7c-0.1,0-0.2,0-0.3-0.1c-33.2-15.6-49.8-73.5-50-74.1c-0.1-0.4,0.1-0.8,0.5-0.9
		c0.4-0.1,0.7,0.1,0.9,0.5c0,0,0,0,0,0c0.2,0.6,16.6,57.8,49.2,73.2c0.3,0.2,0.5,0.6,0.3,0.9C191.3,332.5,191.1,332.7,190.8,332.7
		L190.8,332.7z"></path></g><g id="Note"><polygon class="st0" points="353,381.6 263.7,381.6 280.8,292.3 370.1,292.3 	"></polygon><path class="st1" d="M353,382.3h-89.3c-0.4,0-0.7-0.3-0.7-0.7c0,0,0-0.1,0-0.1l17.1-89.3c0.1-0.3,0.4-0.6,0.7-0.6h89.3
		c0.2,0,0.4,0.1,0.5,0.2c0.1,0.2,0.2,0.4,0.1,0.6l-17.1,89.3C353.6,382.1,353.3,382.3,353,382.3z M264.5,380.9h87.9l16.9-87.9h-87.9
		L264.5,380.9z"></path><path class="st2" d="M353,310.6h-60.1c-0.4,0-0.8-0.3-0.8-0.8c0-0.4,0.3-0.8,0.8-0.8c0,0,0,0,0,0H353c0.4,0,0.8,0.4,0.8,0.8
		C353.8,310.3,353.4,310.6,353,310.6z"></path><path class="st2" d="M350.3,324.6h-60.1c-0.4,0-0.8-0.3-0.8-0.8c0,0,0,0,0,0c0-0.4,0.3-0.8,0.8-0.8h60.1c0.4,0,0.8,0.3,0.8,0.8
		C351.1,324.3,350.7,324.6,350.3,324.6C350.3,324.6,350.3,324.6,350.3,324.6z"></path><path class="st2" d="M347.6,338.6h-60.1c-0.4,0-0.8-0.3-0.8-0.8c0-0.4,0.3-0.8,0.8-0.8c0,0,0,0,0,0h60.1c0.4,0,0.8,0.3,0.8,0.8
		c0,0,0,0,0,0C348.4,338.3,348.1,338.6,347.6,338.6z"></path><path class="st2" d="M344.9,352.6h-60.1c-0.4,0-0.8-0.3-0.8-0.8c0-0.4,0.3-0.8,0.8-0.8c0,0,0,0,0,0h60.1c0.4,0,0.8,0.3,0.8,0.8
		C345.7,352.3,345.4,352.6,344.9,352.6C344.9,352.6,344.9,352.6,344.9,352.6z"></path><path class="st2" d="M324.4,366.6h-42.2c-0.4,0-0.8-0.3-0.8-0.8c0,0,0,0,0,0c0-0.4,0.3-0.8,0.8-0.8h42.2c0.4,0,0.8,0.3,0.8,0.8
		C325.2,366.3,324.8,366.6,324.4,366.6C324.4,366.6,324.4,366.6,324.4,366.6z"></path></g></svg>